<?xml version="1.0" encoding="iso-8859-1"?>
<!DOCTYPE svg PUBLIC "-//W3C//DTD SVG 1.0//EN" "http://www.w3.org/TR/2001/REC-SVG-20010904/DTD/svg10.dtd">
<!-- Creator: CorelDRAW -->
<svg xmlns="http://www.w3.org/2000/svg" xmlns:odm="http://product.corel.com/CGS/11/cddns/" xml:space="preserve" width="147mm" height="110mm" style="shape-rendering:geometricPrecision; text-rendering:geometricPrecision; image-rendering:optimizeQuality; fill-rule:evenodd"
     viewBox="0 0 147000 110000">
 <defs>
  <style type="text/css">
   <![CDATA[
    .str0 {stroke:#131516;stroke-width:353}
    .str1 {stroke:#131516;stroke-width:706}
    .fil1 {fill:none}
    .fil2 {fill:#1F1A17}
    .fil0 {fill:#131516}
    .fnt1 {font-weight:normal;font-size:4785;font-family:Arial}
    .fnt0 {font-weight:normal;font-size:4939;font-family:Arial}
    .fnt2 {font-weight:normal;font-size:6350;font-family:Arial}
   ]]>
  </style>
 </defs>
 <g id="Ebene 1">
  <text x="19276" y="98243" class="fil0 fnt0">0</text>
  <text x="59734" y="98243" class="fil0 fnt0">5</text>
  <text x="99322" y="98243" class="fil0 fnt0">10</text>
  <text x="140215" y="98243" class="fil0 fnt0">15</text>
  <text x="15796" y="93892" class="fil0 fnt0">0</text>
  <text x="10140" y="68226" class="fil0 fnt0">100</text>
  <text x="10140" y="42558" class="fil0 fnt0">200</text>
  <text x="10140" y="16892" class="fil0 fnt0">300</text>
  <path class="fil1 str0" d="M20581 92587l0 -2175"/>
  <path class="fil1 str0" d="M28412 92587l0 -1305"/>
  <path class="fil1 str0" d="M36677 92587l0 -1305"/>
  <path class="fil1 str0" d="M44943 92587l0 -1305"/>
  <path class="fil1 str0" d="M53209 92587l0 -1305"/>
  <path class="fil1 str0" d="M61039 92587l0 -2175"/>
  <path class="fil1 str0" d="M69305 92587l0 -1305"/>
  <path class="fil1 str0" d="M77570 92587l0 -1305"/>
  <path class="fil1 str0" d="M85836 92587l0 -1305"/>
  <path class="fil1 str0" d="M93667 92587l0 -1305"/>
  <path class="fil1 str0" d="M101932 92587l0 -2175"/>
  <path class="fil1 str0" d="M110198 92587l0 -1305"/>
  <path class="fil1 str0" d="M118463 92587l0 -1305"/>
  <path class="fil1 str0" d="M126294 92587l0 -1305"/>
  <path class="fil1 str0" d="M134560 92587l0 -1305"/>
  <path class="fil1 str0" d="M142825 92587l0 -2175"/>
  <path class="fil1 str0" d="M20581 92587l122244 0"/>
  <path class="fil1 str0" d="M20581 92587l1740 0"/>
  <path class="fil1 str0" d="M20581 79536l870 0"/>
  <path class="fil1 str0" d="M20581 66920l1740 0"/>
  <path class="fil1 str0" d="M20581 53869l870 0"/>
  <path class="fil1 str0" d="M20581 41253l1740 0"/>
  <path class="fil1 str0" d="M20581 28202l870 0"/>
  <path class="fil1 str0" d="M20581 15586l1740 0"/>
  <path class="fil1 str0" d="M20581 2535l870 0"/>
  <path class="fil1 str0" d="M20581 92587l0 -90052"/>
  <path class="fil1 str0" d="M20581 2535l0 2176"/>
  <path class="fil1 str0" d="M28412 2535l0 1306"/>
  <path class="fil1 str0" d="M36677 2535l0 1306"/>
  <path class="fil1 str0" d="M44943 2535l0 1306"/>
  <path class="fil1 str0" d="M53209 2535l0 1306"/>
  <path class="fil1 str0" d="M61039 2535l0 2176"/>
  <path class="fil1 str0" d="M69305 2535l0 1306"/>
  <path class="fil1 str0" d="M77570 2535l0 1306"/>
  <path class="fil1 str0" d="M85836 2535l0 1306"/>
  <path class="fil1 str0" d="M93667 2535l0 1306"/>
  <path class="fil1 str0" d="M101932 2535l0 2176"/>
  <path class="fil1 str0" d="M110198 2535l0 1306"/>
  <path class="fil1 str0" d="M118463 2535l0 1306"/>
  <path class="fil1 str0" d="M126294 2535l0 1306"/>
  <path class="fil1 str0" d="M134560 2535l0 1306"/>
  <path class="fil1 str0" d="M142825 2535l0 2176"/>
  <path class="fil1 str0" d="M20581 2535l122244 0"/>
  <path class="fil1 str0" d="M142825 92587l-1740 0"/>
  <path class="fil1 str0" d="M142825 79536l-870 0"/>
  <path class="fil1 str0" d="M142825 66920l-1740 0"/>
  <path class="fil1 str0" d="M142825 53869l-870 0"/>
  <path class="fil1 str0" d="M142825 41253l-1740 0"/>
  <path class="fil1 str0" d="M142825 28202l-870 0"/>
  <path class="fil1 str0" d="M142825 15586l-1740 0"/>
  <path class="fil1 str0" d="M142825 2535l-870 0"/>
  <path class="fil1 str0" d="M142825 92587l0 -90052"/>
  <path class="fil1 str1" d="M20581 92587l8266 -870 5220 -1740 3045 -2175 5221 -4785 3480 -5221 2175 -4350 2610 -7396 2175 -6960 1306 -3915 1689 -3375c250,-417 500,-833 750,-1250l1041 -596c377,-216 940,-236 1305,0 681,440 1104,1170 1305,2175l870 4786 1305 7395 674 5490 500 4500 566 3931c145,580 290,1160 435,1740 290,580 499,1329 870,1741 629,338 1342,731 2176,870 694,115 1160,-580 1740,-870l2175 -3046 3915 -6525 1740 -3480 3046 -6091 5220 -12181 2610 -6525 3916 -9136 1740 -3915 1305 -2611c725,-1305 1450,-2610 2175,-3915 290,-435 402,-1071 870,-1305 290,-145 806,117 870,435l435 2175 435 2175 1305 6961 956 5822 1219 8099 2531 13401 1385 5740c290,871 460,1790 870,2611 467,935 953,1921 1740,2610 450,393 1147,509 1740,435 643,-80 1325,-372 1740,-870 1083,-1299 1740,-2900 2610,-4350l2665 -7176 2121 -7181 3045 -9135 1740 -6091 2175 -6090 3045 -9571c1305,-4205 2523,-8439 3916,-12616 205,-615 668,-1486 958,-2066 435,-870 677,-1475 1217,-2284 341,-512 698,-1204 1305,-1305 516,-86 991,452 1305,870 174,232 366,1435 423,1719 234,1172 251,1452 447,2631l435 2610 870 7831 1305 15661"/>
  <text x="81051" y="-2250" class="fil0 fnt1"> </text>
  <g transform="matrix(2.66389E-014 -1 1 2.66389E-014 -49627.2 147205)">
   <text x="73500" y="55000" class="fil2 fnt2">Current  /  a. u.</text>
  </g>
  <text x="65040" y="107000" class="fil2 fnt2">Voltage  /  V</text>
 </g>
</svg>
