<?xml version="1.0" encoding="UTF-8" standalone="no"?>
<!DOCTYPE svg PUBLIC "-//W3C//DTD SVG 1.1//EN" 
 "http://www.w3.org/Graphics/SVG/1.1/DTD/svg11.dtd">
<!-- Created with Inkscape (http://www.inkscape.org/) -->

<svg
   xmlns:dc="http://purl.org/dc/elements/1.1/"
   xmlns:cc="http://creativecommons.org/ns#"
   xmlns:rdf="http://www.w3.org/1999/02/22-rdf-syntax-ns#"
   xmlns:svg="http://www.w3.org/2000/svg"
   xmlns="http://www.w3.org/2000/svg"
   version="1.1"
   width="400"
   height="515"
   id="svg2">
  <defs
     id="defs4">
    <marker
       refX="0"
       refY="0"
       orient="auto"
       id="Arrow1Mstart"
       style="overflow:visible">
      <path
         d="M 0,0 5,-5 -12.5,0 5,5 0,0 z"
         transform="matrix(0.4,0,0,0.4,4,0)"
         id="path3960"
         style="fill-rule:evenodd;stroke:#000000;stroke-width:1pt;marker-start:none" />
    </marker>
    <marker
       refX="0"
       refY="0"
       orient="auto"
       id="Arrow2Mend"
       style="overflow:visible">
      <path
         d="M 8.7185878,4.0337352 -2.2072895,0.01601326 8.7185884,-4.0017078 c -1.7454984,2.3720609 -1.7354408,5.6174519 -6e-7,8.035443 z"
         transform="scale(-0.6,-0.6)"
         id="path3981"
         style="font-size:12px;fill-rule:evenodd;stroke-width:0.625;stroke-linejoin:round" />
    </marker>
    <marker
       refX="0"
       refY="0"
       orient="auto"
       id="Arrow1Mend"
       style="overflow:visible">
      <path
         d="M 0,0 5,-5 -12.5,0 5,5 0,0 z"
         transform="matrix(-0.4,0,0,-0.4,-4,0)"
         id="path3963"
         style="fill-rule:evenodd;stroke:#000000;stroke-width:1pt;marker-start:none" />
    </marker>
    <marker
       refX="0"
       refY="0"
       orient="auto"
       id="Arrow1Lend"
       style="overflow:visible">
      <path
         d="M 0,0 5,-5 -12.5,0 5,5 0,0 z"
         transform="matrix(-0.8,0,0,-0.8,-10,0)"
         id="path3957"
         style="fill-rule:evenodd;stroke:#000000;stroke-width:1pt;marker-start:none" />
    </marker>
    <marker
       refX="0"
       refY="0"
       orient="auto"
       id="Arrow1Lstart"
       style="overflow:visible">
      <path
         d="M 0,0 5,-5 -12.5,0 5,5 0,0 z"
         transform="matrix(0.8,0,0,0.8,10,0)"
         id="path3954"
         style="fill-rule:evenodd;stroke:#000000;stroke-width:1pt;marker-start:none" />
    </marker>
  </defs>
  <metadata
     id="metadata7">
    <rdf:RDF>
      <cc:Work
         rdf:about="">
        <dc:format>image/svg+xml</dc:format>
        <dc:type
           rdf:resource="http://purl.org/dc/dcmitype/StillImage" />
        <dc:title></dc:title>
      </cc:Work>
    </rdf:RDF>
  </metadata>
  <g
     id="g3383">
    <path
       d="m 95,85 0,40 60,0 0,-40 30,0 0,70 -120,0 0,-70 z"
       id="path2998"
       style="fill:#701022;fill-opacity:1;stroke:none" />
    <path
       d="m 135,105.00001 a 10,10 0 0 1 -20,0 10,10 0 1 1 20,0 z"
       id="path3000"
       style="fill:#1be000;fill-opacity:1;stroke:none" />
    <path
       d="m 115,405 0,50 20,0 0,-50 z"
       id="path3004"
       style="fill:#7400e0;fill-opacity:1;stroke:none" />
    <g
       transform="translate(-125,-87.36218)"
       id="g3801">
      <path
         d="m 300,542.36218 40,-50 20,0 -40,50 z"
         id="path3010"
         style="fill:#00e03a;fill-opacity:1;stroke:none" />
      <path
         d="m 200,542.36218 -40,-50 -20,0 40,50 z"
         id="path3012"
         style="fill:#00e03a;fill-opacity:1;stroke:none" />
    </g>
    <g
       transform="translate(-125,-87.36218)"
       id="g3944">
      <path
         d="m 255,192.36218 145,0"
         id="path3815"
         style="fill:none;stroke:#000000;stroke-width:1px;stroke-linecap:butt;stroke-linejoin:miter;stroke-opacity:1" />
      <path
         d="m 305,232.36218 95,0"
         id="path3817"
         style="fill:none;stroke:#000000;stroke-width:1px;stroke-linecap:butt;stroke-linejoin:miter;stroke-opacity:1" />
      <path
         d="m 340,512.36218 60,0"
         id="path3819"
         style="fill:none;stroke:#000000;stroke-width:1px;stroke-linecap:butt;stroke-linejoin:miter;stroke-opacity:1" />
      <path
         d="m 275,532.36218 125,0"
         id="path3829"
         style="fill:none;stroke:#000000;stroke-width:1px;stroke-linecap:butt;stroke-linejoin:miter;stroke-opacity:1" />
      <path
         d="m 250,537.36218 0,25 150,0"
         id="path3831"
         style="fill:none;stroke:#000000;stroke-width:1px;stroke-linecap:butt;stroke-linejoin:miter;stroke-opacity:1" />
    </g>
    <g
       transform="translate(-125,-87.36218)"
       id="g3809">
      <path
         d="m 250,262.36218 -40,220 80,0 z"
         id="path3002"
         style="fill:#404040;fill-opacity:1;stroke:none" />
      <g
         id="g3805">
        <path
           d="m 270,492.36218 0,50 10,0 0,-50 z"
           id="path3006"
           style="fill:#404040;fill-opacity:1;stroke:none" />
        <path
           d="m 220,542.36218 10,0 0,-50 -10,0 z"
           id="path3008"
           style="fill:#404040;fill-opacity:1;stroke:none" />
      </g>
    </g>
    <g
       id="g3293">
      <g
         id="text3833"
         style="font-size:24px;font-style:normal;font-weight:normal;line-height:125%;letter-spacing:0px;word-spacing:0px;fill:#ffffff;fill-opacity:1;stroke:none;font-family:Bitstream Vera Sans">
        <path
           d="m 116.11816,362.04102 0,5.47851 2.48047,0 c 0.91796,1e-5 1.6276,-0.23762 2.12891,-0.71289 0.50129,-0.47525 0.75194,-1.15233 0.75195,-2.03125 -1e-5,-0.87238 -0.25066,-1.54621 -0.75195,-2.02148 -0.50131,-0.47525 -1.21095,-0.71288 -2.12891,-0.71289 l -2.48047,0 m -1.97265,-1.6211 4.45312,0 c 1.63411,2e-5 2.86783,0.37111 3.70117,1.11328 0.83984,0.73569 1.25976,1.81642 1.25977,3.24219 -10e-6,1.43881 -0.41993,2.52605 -1.25977,3.26172 -0.83334,0.73568 -2.06706,1.10352 -3.70117,1.10351 l -2.48047,0 0,5.85938 -1.97265,0 0,-14.58008"
           id="path3379"
           style="font-size:20px" />
        <path
           d="m 133.98926,369.54102 c -1e-5,-1.32161 -0.27345,-2.35677 -0.82031,-3.10547 -0.54038,-0.7552 -1.28582,-1.13281 -2.23633,-1.13282 -0.95053,10e-6 -1.69923,0.37762 -2.2461,1.13282 -0.54037,0.7487 -0.81055,1.78386 -0.81054,3.10547 -1e-5,1.32161 0.27017,2.36002 0.81054,3.11523 0.54687,0.7487 1.29557,1.12305 2.2461,1.12305 0.95051,0 1.69595,-0.37435 2.23633,-1.12305 0.54686,-0.75521 0.8203,-1.79362 0.82031,-3.11523 m -6.11328,-3.81836 c 0.3776,-0.65104 0.85286,-1.13281 1.42578,-1.44532 0.57942,-0.319 1.26952,-0.4785 2.07031,-0.47851 1.32812,10e-6 2.40559,0.52735 3.23242,1.58203 0.83332,1.0547 1.24999,2.44141 1.25,4.16016 -1e-5,1.71875 -0.41668,3.10547 -1.25,4.16015 -0.82683,1.05469 -1.9043,1.58203 -3.23242,1.58203 -0.80079,0 -1.49089,-0.15625 -2.07031,-0.46875 -0.57292,-0.31901 -1.04818,-0.80403 -1.42578,-1.45508 l 0,1.64063 -1.80664,0 0,-15.19531 1.80664,0 0,5.91797"
           id="path3381"
           style="font-size:20px" />
      </g>
      <g
         transform="translate(-125,-87.36218)"
         id="text3833-8"
         style="font-size:24px;font-style:normal;font-weight:normal;line-height:125%;letter-spacing:0px;word-spacing:0px;fill:#000000;fill-opacity:1;stroke:none;font-family:Bitstream Vera Sans">
        <path
           d="m 412.49219,507.49109 0,1.34668 c -0.5241,-0.25064 -1.01856,-0.43749 -1.4834,-0.56055 -0.46485,-0.12304 -0.91374,-0.18456 -1.34668,-0.18457 -0.75196,1e-5 -1.33301,0.14584 -1.74316,0.4375 -0.40561,0.29168 -0.60841,0.70639 -0.6084,1.24414 -10e-6,0.45118 0.13443,0.79298 0.40332,1.02539 0.27343,0.22787 0.78841,0.41244 1.54492,0.55371 l 0.83398,0.1709 c 1.02995,0.19597 1.78873,0.54232 2.27637,1.03906 0.49218,0.4922 0.73827,1.153 0.73828,1.98243 -10e-6,0.98893 -0.33269,1.7386 -0.99805,2.24902 -0.66081,0.51042 -1.63151,0.76562 -2.9121,0.76562 -0.48308,0 -0.99805,-0.0547 -1.54493,-0.16406 -0.54232,-0.10937 -1.10514,-0.27116 -1.68847,-0.48535 l 0,-1.42187 c 0.56054,0.31445 1.1097,0.55143 1.64746,0.71093 0.53776,0.15951 1.0664,0.23926 1.58594,0.23926 0.7884,0 1.3968,-0.15495 1.82519,-0.46484 0.42838,-0.3099 0.64257,-0.75195 0.64258,-1.32617 -10e-6,-0.5013 -0.15496,-0.89323 -0.46484,-1.17579 -0.30535,-0.28254 -0.80893,-0.49446 -1.51075,-0.63574 l -0.84082,-0.16406 c -1.02995,-0.20507 -1.77506,-0.52636 -2.23535,-0.96387 -0.46029,-0.43749 -0.69043,-1.04589 -0.69043,-1.82519 0,-0.90234 0.31673,-1.61328 0.9502,-2.13282 0.63802,-0.51952 1.51529,-0.77928 2.63183,-0.77929 0.47851,10e-6 0.96614,0.0433 1.46289,0.12988 0.49674,0.0866 1.00488,0.21648 1.52442,0.38965"
           id="path3081"
           style="font-size:14px" />
        <path
           d="m 421.16699,511.17566 c 0.31445,-0.5651 0.69042,-0.98209 1.12793,-1.25098 0.43749,-0.26887 0.95247,-0.40331 1.54492,-0.40332 0.79752,10e-6 1.41275,0.28028 1.84571,0.84082 0.43293,0.556 0.6494,1.34897 0.64941,2.37891 l 0,4.62109 -1.26465,0 0,-4.58008 c -1e-5,-0.73371 -0.12989,-1.27831 -0.38965,-1.63378 -0.25977,-0.35547 -0.65626,-0.5332 -1.18945,-0.53321 -0.6517,10e-6 -1.16667,0.21648 -1.54492,0.64942 -0.37826,0.43294 -0.56739,1.02311 -0.56738,1.7705 l 0,4.32715 -1.26465,0 0,-4.58008 c -10e-6,-0.73827 -0.12989,-1.28287 -0.38965,-1.63378 -0.25977,-0.35547 -0.66081,-0.5332 -1.20313,-0.53321 -0.64258,10e-6 -1.15299,0.21876 -1.53125,0.65625 -0.37825,0.43295 -0.56738,1.02084 -0.56738,1.76367 l 0,4.32715 -1.26465,0 0,-7.65625 1.26465,0 0,1.18946 c 0.28711,-0.4694 0.63118,-0.81575 1.03223,-1.03907 0.40104,-0.2233 0.87727,-0.33495 1.42871,-0.33496 0.55598,10e-6 1.02766,0.14129 1.41504,0.42383 0.39192,0.28256 0.68131,0.69272 0.86816,1.23047"
           id="path3083"
           style="font-size:14px" />
        <path
           d="m 429.27751,519.4068 3.13262,0 0,0.75538 -4.21237,0 0,-0.75538 c 0.34066,-0.35251 0.80426,-0.82499 1.39079,-1.41745 0.5895,-0.59542 0.95978,-0.97903 1.11086,-1.15085 0.28734,-0.32288 0.48729,-0.59541 0.59986,-0.81759 0.11553,-0.22513 0.17329,-0.44582 0.1733,-0.66207 -1e-5,-0.3525 -0.12442,-0.63984 -0.37325,-0.86202 -0.24587,-0.22217 -0.56728,-0.33325 -0.96422,-0.33326 -0.28142,1e-5 -0.57913,0.0489 -0.89313,0.14664 -0.31104,0.0978 -0.6443,0.24587 -0.99977,0.44434 l 0,-0.90646 c 0.36139,-0.14515 0.69909,-0.25475 1.0131,-0.32881 0.314,-0.0741 0.60134,-0.11108 0.86202,-0.11109 0.68725,10e-6 1.23527,0.17182 1.64407,0.51544 0.40879,0.34363 0.61319,0.80278 0.61319,1.37746 0,0.27253 -0.0518,0.53173 -0.15552,0.7776 -0.10072,0.24291 -0.28586,0.53025 -0.55543,0.86202 -0.0741,0.0859 -0.30956,0.33474 -0.7065,0.7465 -0.39695,0.40879 -0.95682,0.98199 -1.67962,1.7196"
           id="path3085"
           style="font-size:65.00091553%;baseline-shift:sub" />
        <path
           d="m 438.84207,508.09265 c -1.00261,1e-5 -1.80013,0.37371 -2.39257,1.1211 -0.5879,0.7474 -0.88184,1.76595 -0.88184,3.05566 0,1.28516 0.29394,2.30143 0.88184,3.04883 0.59244,0.74739 1.38996,1.12109 2.39257,1.12109 1.0026,0 1.79557,-0.3737 2.37891,-1.12109 0.58788,-0.7474 0.88183,-1.76367 0.88184,-3.04883 -1e-5,-1.28971 -0.29396,-2.30826 -0.88184,-3.05566 -0.58334,-0.74739 -1.37631,-1.12109 -2.37891,-1.1211 m 0,-1.12109 c 1.43099,10e-6 2.57487,0.4808 3.43164,1.44238 0.85677,0.95704 1.28515,2.24219 1.28516,3.85547 -1e-5,1.60873 -0.42839,2.89388 -1.28516,3.85547 -0.85677,0.95703 -2.00065,1.43554 -3.43164,1.43554 -1.43555,0 -2.58398,-0.47851 -3.44531,-1.43554 -0.85677,-0.95703 -1.28516,-2.24219 -1.28516,-3.85547 0,-1.61328 0.42839,-2.89843 1.28516,-3.85547 0.86133,-0.96158 2.00976,-1.44237 3.44531,-1.44238"
           id="path3087"
           style="font-size:14px" />
        <path
           d="m 448.03749,516.58523 c 0.42953,0.0918 0.76426,0.2829 1.00421,0.5732 0.2429,0.29031 0.36436,0.64874 0.36436,1.07531 0,0.65466 -0.22514,1.16121 -0.6754,1.51965 -0.45027,0.35843 -1.09012,0.53765 -1.91956,0.53765 -0.27845,0 -0.56579,-0.0281 -0.86202,-0.0844 -0.29327,-0.0533 -0.5969,-0.13479 -0.9109,-0.24439 l 0,-0.86647 c 0.24883,0.14515 0.52136,0.25476 0.81759,0.32881 0.29622,0.0741 0.60578,0.11109 0.92867,0.11109 0.56283,0 0.99088,-0.11108 1.28415,-0.33326 0.29623,-0.22217 0.44434,-0.54505 0.44434,-0.96866 0,-0.39102 -0.13775,-0.69614 -0.41323,-0.91535 -0.27254,-0.22217 -0.65319,-0.33325 -1.14196,-0.33325 l -0.77316,0 0,-0.73761 0.8087,0 c 0.44138,0 0.77908,-0.0874 1.0131,-0.26216 0.23402,-0.17774 0.35103,-0.43249 0.35104,-0.76427 -10e-6,-0.34066 -0.12146,-0.60134 -0.36437,-0.78204 -0.23994,-0.18366 -0.58505,-0.27549 -1.03531,-0.2755 -0.24587,10e-6 -0.50952,0.0267 -0.79093,0.08 -0.28142,0.0533 -0.59098,0.13628 -0.92868,0.24884 l 0,-0.79982 c 0.34066,-0.0948 0.65911,-0.16588 0.95534,-0.21328 0.29919,-0.0474 0.5806,-0.0711 0.84425,-0.0711 0.68132,10e-6 1.22045,0.15553 1.6174,0.46656 0.39695,0.30808 0.59542,0.72576 0.59542,1.25305 0,0.36732 -0.10516,0.67836 -0.31548,0.93311 -0.21033,0.2518 -0.50952,0.42658 -0.89757,0.52433"
           id="path3089"
           style="font-size:65.00091553%;baseline-shift:sub" />
      </g>
      <g
         transform="translate(-125,-87.36218)"
         id="text3833-8-9"
         style="font-size:24px;font-style:normal;font-weight:normal;line-height:125%;letter-spacing:0px;word-spacing:0px;fill:#000000;fill-opacity:1;stroke:none;font-family:Bitstream Vera Sans">
        <path
           d="m 409.78516,528.51648 -1.87305,5.0791 3.75293,0 -1.87988,-5.0791 m -0.7793,-1.36035 1.56543,0 3.88965,10.20605 -1.43555,0 -0.92969,-2.61816 -4.60058,0 -0.92969,2.61816 -1.45606,0 3.89649,-10.20605"
           id="path3092"
           style="font-size:14px" />
        <path
           d="m 421.38574,533.54089 c 0,-0.92512 -0.19141,-1.64973 -0.57422,-2.17382 -0.37826,-0.52864 -0.90007,-0.79297 -1.56543,-0.79297 -0.66536,0 -1.18945,0.26433 -1.57226,0.79297 -0.37826,0.52409 -0.56739,1.2487 -0.56738,2.17382 -10e-6,0.92514 0.18912,1.65202 0.56738,2.18067 0.38281,0.52409 0.9069,0.78613 1.57226,0.78613 0.66536,0 1.18717,-0.26204 1.56543,-0.78613 0.38281,-0.52865 0.57422,-1.25553 0.57422,-2.18067 m -4.27929,-2.67285 c 0.26432,-0.45572 0.597,-0.79296 0.99804,-1.01172 0.4056,-0.2233 0.88867,-0.33495 1.44922,-0.33496 0.92968,1e-5 1.68391,0.36915 2.2627,1.10742 0.58332,0.73829 0.87499,1.70899 0.875,2.91211 -1e-5,1.20313 -0.29168,2.17383 -0.875,2.91211 -0.57879,0.73828 -1.33302,1.10742 -2.2627,1.10742 -0.56055,0 -1.04362,-0.10937 -1.44922,-0.32812 -0.40104,-0.22331 -0.73372,-0.56283 -0.99804,-1.01855 l 0,1.14843 -1.26465,0 0,-10.63672 1.26465,0 0,4.14258"
           id="path3094"
           style="font-size:14px" />
        <path
           d="m 429.65723,529.93152 0,1.18945 c -0.35548,-0.18228 -0.72462,-0.319 -1.10743,-0.41015 -0.38281,-0.0911 -0.7793,-0.13672 -1.18945,-0.13672 -0.62435,0 -1.09375,0.0957 -1.4082,0.28711 -0.3099,0.19141 -0.46485,0.47852 -0.46485,0.86132 0,0.29168 0.11166,0.52182 0.33497,0.69043 0.2233,0.16407 0.67219,0.3213 1.34668,0.47168 l 0.43066,0.0957 c 0.89322,0.19141 1.52669,0.46257 1.90039,0.81347 0.37825,0.34636 0.56738,0.83171 0.56738,1.45606 0,0.71094 -0.28256,1.27376 -0.84765,1.68847 -0.56056,0.41472 -1.33302,0.62207 -2.31739,0.62207 -0.41016,0 -0.83854,-0.041 -1.28515,-0.12304 -0.44206,-0.0775 -0.90918,-0.19597 -1.40137,-0.35547 l 0,-1.29883 c 0.46484,0.24154 0.92285,0.42383 1.37402,0.54688 0.45117,0.11849 0.89779,0.17773 1.33985,0.17773 0.59244,0 1.04817,-0.10026 1.36718,-0.30078 0.31901,-0.20508 0.47852,-0.49219 0.47852,-0.86133 0,-0.34179 -0.11622,-0.60384 -0.34863,-0.78613 -0.22787,-0.18229 -0.73145,-0.35775 -1.51074,-0.52637 l -0.4375,-0.10254 c -0.7793,-0.16406 -1.34213,-0.41471 -1.68848,-0.75195 -0.34636,-0.34179 -0.51953,-0.80892 -0.51953,-1.40137 0,-0.72004 0.25521,-1.27603 0.76562,-1.66797 0.51042,-0.39192 1.23503,-0.58788 2.17383,-0.58789 0.46484,10e-6 0.90234,0.0342 1.3125,0.10254 0.41015,0.0684 0.78841,0.17091 1.13477,0.30762"
           id="path3096"
           style="font-size:14px" />
        <path
           d="m 437.58691,529.99988 0,1.17578 c -0.35547,-0.19596 -0.71322,-0.34179 -1.07324,-0.4375 -0.35547,-0.10025 -0.7155,-0.15038 -1.08008,-0.15039 -0.81576,10e-6 -1.44922,0.25977 -1.90039,0.7793 -0.45117,0.51497 -0.67676,1.23958 -0.67675,2.17382 -10e-6,0.93425 0.22558,1.66114 0.67675,2.18067 0.45117,0.51497 1.08463,0.77246 1.90039,0.77246 0.36458,0 0.72461,-0.0478 1.08008,-0.14356 0.36002,-0.10026 0.71777,-0.24837 1.07324,-0.44433 l 0,1.16211 c -0.35091,0.16406 -0.7155,0.28711 -1.09375,0.36914 -0.3737,0.082 -0.77246,0.12304 -1.19629,0.12304 -1.15299,0 -2.06901,-0.3623 -2.74804,-1.08691 -0.67904,-0.72461 -1.01856,-1.70215 -1.01856,-2.93262 0,-1.24869 0.3418,-2.23078 1.02539,-2.94629 0.68815,-0.71548 1.62923,-1.07323 2.82325,-1.07324 0.38736,1e-5 0.76562,0.041 1.13476,0.12305 0.36914,0.0775 0.72688,0.19597 1.07324,0.35547"
           id="path3098"
           style="font-size:14px" />
        <path
           d="m 446.15234,532.74109 0,4.62109 -1.25781,0 0,-4.58008 c -10e-6,-0.7246 -0.14128,-1.26692 -0.42383,-1.62695 -0.28255,-0.36002 -0.70638,-0.54003 -1.27148,-0.54004 -0.67904,1e-5 -1.21452,0.21648 -1.60645,0.64942 -0.39193,0.43294 -0.58789,1.02311 -0.58789,1.7705 l 0,4.32715 -1.26465,0 0,-10.63672 1.26465,0 0,4.16993 c 0.30078,-0.46028 0.65397,-0.80436 1.05957,-1.03223 0.41016,-0.22786 0.88183,-0.34179 1.41504,-0.3418 0.87955,1e-5 1.54492,0.27345 1.9961,0.82031 0.45116,0.54233 0.67675,1.34213 0.67675,2.39942"
           id="path3100"
           style="font-size:14px" />
        <path
           d="m 448.6748,529.70593 1.25782,0 0,7.65625 -1.25782,0 0,-7.65625 m 0,-2.98047 1.25782,0 0,1.59278 -1.25782,0 0,-1.59278"
           id="path3102"
           style="font-size:14px" />
        <path
           d="m 456.99414,530.88171 c -0.14128,-0.082 -0.29623,-0.14127 -0.46484,-0.17773 -0.16407,-0.041 -0.34636,-0.0615 -0.54688,-0.0615 -0.71094,0 -1.25781,0.23242 -1.64062,0.69726 -0.37826,0.46029 -0.56739,1.12338 -0.56739,1.98926 l 0,4.0332 -1.26464,0 0,-7.65625 1.26464,0 0,1.18946 c 0.26432,-0.46484 0.6084,-0.80892 1.03223,-1.03223 0.42382,-0.22786 0.9388,-0.34179 1.54492,-0.3418 0.0866,10e-6 0.18229,0.007 0.28711,0.0205 0.10481,0.009 0.22102,0.0251 0.34863,0.0479 l 0.007,1.29199"
           id="path3104"
           style="font-size:14px" />
        <path
           d="m 464.04199,531.17566 c 0.31445,-0.5651 0.69042,-0.98209 1.12793,-1.25098 0.43749,-0.26887 0.95247,-0.40331 1.54492,-0.40332 0.79752,1e-5 1.41275,0.28028 1.84571,0.84082 0.43293,0.556 0.6494,1.34897 0.64941,2.37891 l 0,4.62109 -1.26465,0 0,-4.58008 c -1e-5,-0.73371 -0.12989,-1.27831 -0.38965,-1.63378 -0.25977,-0.35547 -0.65626,-0.5332 -1.18945,-0.53321 -0.6517,1e-5 -1.16667,0.21648 -1.54492,0.64942 -0.37826,0.43294 -0.56739,1.02311 -0.56738,1.7705 l 0,4.32715 -1.26465,0 0,-4.58008 c -10e-6,-0.73827 -0.12989,-1.28287 -0.38965,-1.63378 -0.25977,-0.35547 -0.66081,-0.5332 -1.20313,-0.53321 -0.64258,1e-5 -1.15299,0.21876 -1.53125,0.65625 -0.37825,0.43295 -0.56738,1.02084 -0.56738,1.76367 l 0,4.32715 -1.26465,0 0,-7.65625 1.26465,0 0,1.18946 c 0.28711,-0.4694 0.63118,-0.81575 1.03223,-1.03907 0.40104,-0.2233 0.87727,-0.33495 1.42871,-0.33496 0.55598,1e-5 1.02766,0.14129 1.41504,0.42383 0.39192,0.28256 0.68131,0.69272 0.86816,1.23047"
           id="path3106"
           style="font-size:14px" />
        <path
           d="m 471.5957,534.3407 0,-4.63477 1.25782,0 0,4.58692 c -10e-6,0.72461 0.14127,1.2692 0.42382,1.63379 0.28255,0.36002 0.70638,0.54004 1.27149,0.54003 0.67903,10e-6 1.21451,-0.21647 1.60644,-0.64941 0.39648,-0.43294 0.59472,-1.02311 0.59473,-1.77051 l 0,-4.34082 1.25781,0 0,7.65625 -1.25781,0 0,-1.17578 c -0.30534,0.46485 -0.66081,0.8112 -1.06641,1.03906 -0.40104,0.22331 -0.86816,0.33496 -1.40136,0.33496 -0.87956,0 -1.54721,-0.27343 -2.00293,-0.82031 -0.45573,-0.54687 -0.6836,-1.34668 -0.6836,-2.39941 m 3.16504,-4.81934 0,0"
           id="path3108"
           style="font-size:14px" />
        <path
           d="m 486.97656,532.74109 0,4.62109 -1.25781,0 0,-4.58008 c -10e-6,-0.7246 -0.14128,-1.26692 -0.42383,-1.62695 -0.28256,-0.36002 -0.70638,-0.54003 -1.27148,-0.54004 -0.67904,1e-5 -1.21452,0.21648 -1.60645,0.64942 -0.39193,0.43294 -0.58789,1.02311 -0.58789,1.7705 l 0,4.32715 -1.26465,0 0,-7.65625 1.26465,0 0,1.18946 c 0.30078,-0.46028 0.65397,-0.80436 1.05957,-1.03223 0.41015,-0.22786 0.88183,-0.34179 1.41504,-0.3418 0.87955,1e-5 1.54492,0.27345 1.99609,0.82031 0.45117,0.54233 0.67675,1.34213 0.67676,2.39942"
           id="path3110"
           style="font-size:14px" />
        <path
           d="m 494.53711,533.44519 c -10e-6,-0.91145 -0.18913,-1.61783 -0.56738,-2.11914 -0.37371,-0.5013 -0.90007,-0.75195 -1.57911,-0.75195 -0.67448,0 -1.20084,0.25065 -1.5791,0.75195 -0.3737,0.50131 -0.56055,1.20769 -0.56054,2.11914 -1e-5,0.9069 0.18684,1.61101 0.56054,2.11231 0.37826,0.5013 0.90462,0.75195 1.5791,0.75195 0.67904,0 1.2054,-0.25065 1.57911,-0.75195 0.37825,-0.5013 0.56737,-1.20541 0.56738,-2.11231 m 1.25781,2.9668 c -10e-6,1.30338 -0.28939,2.27181 -0.86816,2.90527 -0.57878,0.63802 -1.46518,0.95703 -2.65918,0.95703 -0.44206,0 -0.85905,-0.0342 -1.25098,-0.10254 -0.39193,-0.0638 -0.77246,-0.16406 -1.1416,-0.30078 l 0,-1.22363 c 0.36914,0.20052 0.73372,0.34863 1.09375,0.44433 0.36002,0.0957 0.72688,0.14356 1.10059,0.14356 0.82486,0 1.44237,-0.21647 1.85253,-0.64941 0.41016,-0.42839 0.61523,-1.0778 0.61524,-1.94825 l 0,-0.62207 c -0.25977,0.45118 -0.59245,0.78841 -0.99805,1.01172 -0.4056,0.22331 -0.89095,0.33496 -1.45605,0.33496 -0.93881,0 -1.69532,-0.35774 -2.26953,-1.07324 -0.57422,-0.71549 -0.86133,-1.66341 -0.86133,-2.84375 0,-1.18489 0.28711,-2.13508 0.86133,-2.85059 0.57421,-0.71548 1.33072,-1.07323 2.26953,-1.07324 0.5651,1e-5 1.05045,0.11166 1.45605,0.33496 0.4056,0.22332 0.73828,0.56056 0.99805,1.01172 l 0,-1.16211 1.25781,0 0,6.70606"
           id="path3112"
           style="font-size:14px" />
      </g>
      <g
         transform="translate(-125,-87.36218)"
         id="text3833-8-9-6"
         style="font-size:24px;font-style:normal;font-weight:normal;line-height:125%;letter-spacing:0px;word-spacing:0px;fill:#000000;fill-opacity:1;stroke:none;font-family:Bitstream Vera Sans">
        <path
           d="m 406.37402,557.15613 1.85938,0 4.52539,8.53808 0,-8.53808 1.33984,0 0,10.20605 -1.85937,0 -4.52539,-8.53808 0,8.53808 -1.33985,0 0,-10.20605"
           id="path3115"
           style="font-size:14px" />
        <path
           d="m 420.27148,563.51355 c -1.01628,0 -1.72038,0.11621 -2.1123,0.34863 -0.39193,0.23243 -0.58789,0.62891 -0.58789,1.18946 0,0.44661 0.14583,0.80208 0.4375,1.0664 0.29622,0.25977 0.69726,0.38965 1.20312,0.38965 0.69727,0 1.25553,-0.24609 1.67481,-0.73828 0.42382,-0.49674 0.63573,-1.15527 0.63574,-1.97559 l 0,-0.28027 -1.25098,0 m 2.50879,-0.51953 0,4.36816 -1.25781,0 0,-1.16211 c -0.28711,0.46485 -0.64486,0.80892 -1.07324,1.03223 -0.42839,0.21875 -0.95248,0.32812 -1.57227,0.32812 -0.78385,0 -1.4082,-0.21875 -1.87304,-0.65625 -0.46029,-0.44205 -0.69043,-1.03222 -0.69043,-1.7705 0,-0.86133 0.2871,-1.51074 0.86132,-1.94825 0.57878,-0.43749 1.44011,-0.65624 2.58399,-0.65625 l 1.76367,0 0,-0.12304 c -1e-5,-0.57877 -0.19141,-1.02539 -0.57422,-1.33985 -0.37826,-0.319 -0.91146,-0.4785 -1.59961,-0.47851 -0.4375,10e-6 -0.86361,0.0524 -1.27832,0.15723 -0.41471,0.10482 -0.81348,0.26205 -1.19629,0.47167 l 0,-1.1621 c 0.46029,-0.17773 0.9069,-0.30989 1.33985,-0.39649 0.43294,-0.0911 0.85449,-0.13671 1.26465,-0.13672 1.10741,1e-5 1.93456,0.28712 2.48144,0.86133 0.54687,0.57423 0.82031,1.44467 0.82031,2.61133"
           id="path3117"
           style="font-size:14px" />
        <path
           d="m 425.43262,557.15613 1.38086,0 0,9.49512 c -1e-5,1.23046 -0.23471,2.12369 -0.70411,2.67968 -0.46484,0.55599 -1.21451,0.83398 -2.24902,0.83399 l -0.52637,0 0,-1.16211 0.43067,0 c 0.61068,0 1.04134,-0.1709 1.29199,-0.5127 0.25065,-0.3418 0.37598,-0.95475 0.37598,-1.83886 l 0,-9.49512"
           id="path3119"
           style="font-size:14px" />
        <path
           d="m 428.37891,562.96667 3.68457,0 0,1.1211 -3.68457,0 0,-1.1211"
           id="path3121"
           style="font-size:14px" />
        <path
           d="m 440.24609,557.49109 0,1.34668 c -0.52409,-0.25064 -1.01856,-0.43749 -1.48339,-0.56055 -0.46485,-0.12304 -0.91375,-0.18456 -1.34668,-0.18457 -0.75196,10e-6 -1.33302,0.14584 -1.74317,0.4375 -0.4056,0.29168 -0.6084,0.70639 -0.6084,1.24414 0,0.45118 0.13444,0.79298 0.40332,1.02539 0.27344,0.22787 0.78841,0.41244 1.54493,0.55371 l 0.83398,0.1709 c 1.02994,0.19597 1.78873,0.54232 2.27637,1.03906 0.49218,0.4922 0.73827,1.153 0.73828,1.98243 -1e-5,0.98893 -0.33269,1.7386 -0.99805,2.24902 -0.66081,0.51042 -1.63151,0.76562 -2.91211,0.76562 -0.48307,0 -0.99805,-0.0547 -1.54492,-0.16406 -0.54232,-0.10937 -1.10514,-0.27116 -1.68848,-0.48535 l 0,-1.42187 c 0.56055,0.31445 1.1097,0.55143 1.64746,0.71093 0.53776,0.15951 1.06641,0.23926 1.58594,0.23926 0.78841,0 1.39681,-0.15495 1.8252,-0.46484 0.42838,-0.3099 0.64257,-0.75195 0.64258,-1.32617 -10e-6,-0.5013 -0.15496,-0.89323 -0.46485,-1.17579 -0.30534,-0.28254 -0.80892,-0.49446 -1.51074,-0.63574 l -0.84082,-0.16406 c -1.02995,-0.20507 -1.77507,-0.52636 -2.23535,-0.96387 -0.46029,-0.43749 -0.69043,-1.04589 -0.69043,-1.82519 0,-0.90234 0.31673,-1.61328 0.95019,-2.13282 0.63802,-0.51952 1.5153,-0.77928 2.63184,-0.77929 0.47851,1e-5 0.96614,0.0433 1.46289,0.12988 0.49674,0.0866 1.00488,0.21648 1.52441,0.38965"
           id="path3123"
           style="font-size:14px" />
        <path
           d="m 442.41309,559.70593 5.97461,0 0,1.14844 -4.73047,5.50293 4.73047,0 0,1.00488 -6.14551,0 0,-1.14843 4.73047,-5.50293 -4.55957,0 0,-1.00489"
           id="path3125"
           style="font-size:14px" />
        <path
           d="m 450.31543,559.70593 1.25781,0 0,7.65625 -1.25781,0 0,-7.65625 m 0,-2.98047 1.25781,0 0,1.59278 -1.25781,0 0,-1.59278"
           id="path3127"
           style="font-size:14px" />
        <path
           d="m 460.5625,562.74109 0,4.62109 -1.25781,0 0,-4.58008 c -10e-6,-0.7246 -0.14128,-1.26692 -0.42383,-1.62695 -0.28256,-0.36002 -0.70639,-0.54003 -1.27149,-0.54004 -0.67904,1e-5 -1.21452,0.21648 -1.60644,0.64942 -0.39193,0.43294 -0.58789,1.02311 -0.58789,1.7705 l 0,4.32715 -1.26465,0 0,-7.65625 1.26465,0 0,1.18946 c 0.30078,-0.46028 0.65397,-0.80436 1.05957,-1.03223 0.41015,-0.22786 0.88183,-0.34179 1.41504,-0.3418 0.87955,1e-5 1.54491,0.27345 1.99609,0.82031 0.45117,0.54233 0.67675,1.34213 0.67676,2.39942"
           id="path3129"
           style="font-size:14px" />
        <path
           d="m 464.3291,557.5321 0,2.17383 2.59082,0 0,0.97754 -2.59082,0 0,4.15625 c 0,0.62435 0.0843,1.02539 0.25293,1.20313 0.17318,0.17773 0.52181,0.2666 1.0459,0.2666 l 1.29199,0 0,1.05273 -1.29199,0 c -0.97071,0 -1.64063,-0.18001 -2.00977,-0.54004 -0.36914,-0.36458 -0.55371,-1.02539 -0.55371,-1.98242 l 0,-4.15625 -0.92285,0 0,-0.97754 0.92285,0 0,-2.17383 1.26465,0"
           id="path3131"
           style="font-size:14px" />
        <path
           d="m 468.58105,559.70593 1.25782,0 0,7.65625 -1.25782,0 0,-7.65625 m 0,-2.98047 1.25782,0 0,1.59278 -1.25782,0 0,-1.59278"
           id="path3133"
           style="font-size:14px" />
        <path
           d="m 472.46387,556.72546 1.25781,0 0,10.63672 -1.25781,0 0,-10.63672"
           id="path3135"
           style="font-size:14px" />
        <path
           d="m 476.34668,556.72546 1.25781,0 0,10.63672 -1.25781,0 0,-10.63672"
           id="path3137"
           style="font-size:14px" />
        <path
           d="m 483.70898,563.51355 c -1.01628,0 -1.72038,0.11621 -2.1123,0.34863 -0.39193,0.23243 -0.58789,0.62891 -0.58789,1.18946 0,0.44661 0.14583,0.80208 0.4375,1.0664 0.29622,0.25977 0.69726,0.38965 1.20312,0.38965 0.69727,0 1.25553,-0.24609 1.67481,-0.73828 0.42382,-0.49674 0.63573,-1.15527 0.63574,-1.97559 l 0,-0.28027 -1.25098,0 m 2.50879,-0.51953 0,4.36816 -1.25781,0 0,-1.16211 c -0.28711,0.46485 -0.64486,0.80892 -1.07324,1.03223 -0.42839,0.21875 -0.95248,0.32812 -1.57227,0.32812 -0.78385,0 -1.4082,-0.21875 -1.87304,-0.65625 -0.46029,-0.44205 -0.69043,-1.03222 -0.69043,-1.7705 0,-0.86133 0.2871,-1.51074 0.86132,-1.94825 0.57878,-0.43749 1.44011,-0.65624 2.58399,-0.65625 l 1.76367,0 0,-0.12304 c -1e-5,-0.57877 -0.19141,-1.02539 -0.57422,-1.33985 -0.37826,-0.319 -0.91146,-0.4785 -1.59961,-0.47851 -0.4375,10e-6 -0.86361,0.0524 -1.27832,0.15723 -0.41471,0.10482 -0.81348,0.26205 -1.19629,0.47167 l 0,-1.1621 c 0.46029,-0.17773 0.9069,-0.30989 1.33985,-0.39649 0.43294,-0.0911 0.85449,-0.13671 1.26465,-0.13672 1.10741,1e-5 1.93456,0.28712 2.48144,0.86133 0.54687,0.57423 0.82031,1.44467 0.82031,2.61133"
           id="path3139"
           style="font-size:14px" />
        <path
           d="m 490.05957,557.5321 0,2.17383 2.59082,0 0,0.97754 -2.59082,0 0,4.15625 c 0,0.62435 0.0843,1.02539 0.25293,1.20313 0.17317,0.17773 0.52181,0.2666 1.0459,0.2666 l 1.29199,0 0,1.05273 -1.29199,0 c -0.97071,0 -1.64063,-0.18001 -2.00977,-0.54004 -0.36914,-0.36458 -0.55371,-1.02539 -0.55371,-1.98242 l 0,-4.15625 -0.92285,0 0,-0.97754 0.92285,0 0,-2.17383 1.26465,0"
           id="path3141"
           style="font-size:14px" />
        <path
           d="m 497.27832,560.58777 c -0.67448,10e-6 -1.20769,0.26433 -1.59961,0.79297 -0.39193,0.52409 -0.58789,1.24414 -0.58789,2.16015 0,0.91602 0.19368,1.63835 0.58105,2.167 0.39193,0.52409 0.92741,0.78613 1.60645,0.78613 0.66992,0 1.20084,-0.26432 1.59277,-0.79297 0.39192,-0.52864 0.58789,-1.2487 0.58789,-2.16016 0,-0.90689 -0.19597,-1.62467 -0.58789,-2.15332 -0.39193,-0.53319 -0.92285,-0.79979 -1.59277,-0.7998 m 0,-1.06641 c 1.09374,1e-5 1.95279,0.35548 2.57715,1.06641 0.62434,0.71094 0.93651,1.69532 0.93652,2.95312 -10e-6,1.25326 -0.31218,2.23764 -0.93652,2.95313 -0.62436,0.71094 -1.48341,1.0664 -2.57715,1.0664 -1.09831,0 -1.95964,-0.35546 -2.58398,-1.0664 -0.6198,-0.71549 -0.92969,-1.69987 -0.92969,-2.95313 0,-1.2578 0.30989,-2.24218 0.92969,-2.95312 0.62434,-0.71093 1.48567,-1.0664 2.58398,-1.06641"
           id="path3143"
           style="font-size:14px" />
        <path
           d="m 507.30664,560.88171 c -0.14128,-0.082 -0.29623,-0.14127 -0.46484,-0.17773 -0.16407,-0.041 -0.34636,-0.0615 -0.54688,-0.0615 -0.71094,0 -1.25781,0.23242 -1.64062,0.69726 -0.37826,0.46029 -0.56739,1.12338 -0.56739,1.98926 l 0,4.0332 -1.26464,0 0,-7.65625 1.26464,0 0,1.18946 c 0.26432,-0.46484 0.6084,-0.80892 1.03223,-1.03223 0.42382,-0.22786 0.9388,-0.34179 1.54492,-0.3418 0.0866,10e-6 0.18229,0.007 0.28711,0.0205 0.10481,0.009 0.22102,0.0251 0.34863,0.0479 l 0.007,1.29199"
           id="path3145"
           style="font-size:14px" />
        <path
           d="m 510.875,557.15613 1.16211,0 -3.55469,11.50488 -1.16211,0 3.55469,-11.50488"
           id="path3147"
           style="font-size:14px" />
        <path
           d="m 407.75488,575.79089 0,3.83496 1.73633,0 c 0.64257,10e-6 1.13932,-0.16633 1.49024,-0.49902 0.3509,-0.33268 0.52636,-0.80663 0.52636,-1.42187 0,-0.61067 -0.17546,-1.08235 -0.52636,-1.41504 -0.35092,-0.33268 -0.84767,-0.49902 -1.49024,-0.49903 l -1.73633,0 m -1.38086,-1.13476 3.11719,0 c 1.14388,1e-5 2.00748,0.25977 2.59082,0.77929 0.58788,0.51499 0.88183,1.2715 0.88184,2.26954 -10e-6,1.00716 -0.29396,1.76823 -0.88184,2.2832 -0.58334,0.51498 -1.44694,0.77246 -2.59082,0.77246 l -1.73633,0 0,4.10156 -1.38086,0 0,-10.20605"
           id="path3149"
           style="font-size:14px" />
        <path
           d="m 421.13281,580.24109 0,4.62109 -1.25781,0 0,-4.58008 c -10e-6,-0.7246 -0.14128,-1.26692 -0.42383,-1.62695 -0.28256,-0.36002 -0.70638,-0.54003 -1.27148,-0.54004 -0.67904,1e-5 -1.21452,0.21648 -1.60645,0.64942 -0.39193,0.43294 -0.58789,1.02311 -0.58789,1.7705 l 0,4.32715 -1.26465,0 0,-10.63672 1.26465,0 0,4.16993 c 0.30078,-0.46028 0.65397,-0.80436 1.05957,-1.03223 0.41015,-0.22786 0.88183,-0.34179 1.41504,-0.3418 0.87955,1e-5 1.54492,0.27345 1.99609,0.82031 0.45117,0.54233 0.67675,1.34213 0.67676,2.39942"
           id="path3151"
           style="font-size:14px" />
        <path
           d="m 426.62207,578.08777 c -0.67448,10e-6 -1.20769,0.26433 -1.59961,0.79297 -0.39193,0.52409 -0.58789,1.24414 -0.58789,2.16015 0,0.91602 0.19368,1.63835 0.58105,2.167 0.39193,0.52409 0.92741,0.78613 1.60645,0.78613 0.66992,0 1.20084,-0.26432 1.59277,-0.79297 0.39192,-0.52864 0.58789,-1.2487 0.58789,-2.16016 0,-0.90689 -0.19597,-1.62467 -0.58789,-2.15332 -0.39193,-0.53319 -0.92285,-0.79979 -1.59277,-0.7998 m 0,-1.06641 c 1.09374,1e-5 1.95279,0.35548 2.57715,1.06641 0.62434,0.71094 0.93651,1.69532 0.93652,2.95312 -10e-6,1.25326 -0.31218,2.23764 -0.93652,2.95313 -0.62436,0.71094 -1.48341,1.0664 -2.57715,1.0664 -1.09831,0 -1.95964,-0.35546 -2.58398,-1.0664 -0.6198,-0.71549 -0.92969,-1.69987 -0.92969,-2.95313 0,-1.2578 0.30989,-2.24218 0.92969,-2.95312 0.62434,-0.71093 1.48567,-1.0664 2.58398,-1.06641"
           id="path3153"
           style="font-size:14px" />
        <path
           d="m 433.45801,575.0321 0,2.17383 2.59082,0 0,0.97754 -2.59082,0 0,4.15625 c 0,0.62435 0.0843,1.02539 0.25293,1.20313 0.17317,0.17773 0.5218,0.2666 1.0459,0.2666 l 1.29199,0 0,1.05273 -1.29199,0 c -0.97071,0 -1.64063,-0.18001 -2.00977,-0.54004 -0.36914,-0.36458 -0.55371,-1.02539 -0.55371,-1.98242 l 0,-4.15625 -0.92285,0 0,-0.97754 0.92285,0 0,-2.17383 1.26465,0"
           id="path3155"
           style="font-size:14px" />
        <path
           d="m 440.67676,578.08777 c -0.67448,10e-6 -1.20769,0.26433 -1.59961,0.79297 -0.39193,0.52409 -0.58789,1.24414 -0.58789,2.16015 0,0.91602 0.19368,1.63835 0.58105,2.167 0.39193,0.52409 0.92741,0.78613 1.60645,0.78613 0.66991,0 1.20084,-0.26432 1.59277,-0.79297 0.39192,-0.52864 0.58789,-1.2487 0.58789,-2.16016 0,-0.90689 -0.19597,-1.62467 -0.58789,-2.15332 -0.39193,-0.53319 -0.92286,-0.79979 -1.59277,-0.7998 m 0,-1.06641 c 1.09374,1e-5 1.95279,0.35548 2.57715,1.06641 0.62434,0.71094 0.93651,1.69532 0.93652,2.95312 -10e-6,1.25326 -0.31218,2.23764 -0.93652,2.95313 -0.62436,0.71094 -1.48341,1.0664 -2.57715,1.0664 -1.09831,0 -1.95964,-0.35546 -2.58399,-1.0664 -0.61979,-0.71549 -0.92968,-1.69987 -0.92968,-2.95313 0,-1.2578 0.30989,-2.24218 0.92968,-2.95312 0.62435,-0.71093 1.48568,-1.0664 2.58399,-1.06641"
           id="path3157"
           style="font-size:14px" />
        <path
           d="m 452.22949,578.67566 c 0.31445,-0.5651 0.69042,-0.98209 1.12793,-1.25098 0.43749,-0.26887 0.95247,-0.40331 1.54492,-0.40332 0.79752,1e-5 1.41275,0.28028 1.84571,0.84082 0.43293,0.556 0.6494,1.34897 0.64941,2.37891 l 0,4.62109 -1.26465,0 0,-4.58008 c -1e-5,-0.73371 -0.12989,-1.27831 -0.38965,-1.63378 -0.25977,-0.35547 -0.65626,-0.5332 -1.18945,-0.53321 -0.6517,1e-5 -1.16667,0.21648 -1.54492,0.64942 -0.37826,0.43294 -0.56739,1.02311 -0.56738,1.7705 l 0,4.32715 -1.26465,0 0,-4.58008 c -10e-6,-0.73827 -0.12989,-1.28287 -0.38965,-1.63378 -0.25977,-0.35547 -0.66081,-0.5332 -1.20313,-0.53321 -0.64258,1e-5 -1.15299,0.21876 -1.53125,0.65625 -0.37825,0.43295 -0.56738,1.02084 -0.56738,1.76367 l 0,4.32715 -1.26465,0 0,-7.65625 1.26465,0 0,1.18946 c 0.28711,-0.4694 0.63118,-0.81575 1.03223,-1.03907 0.40104,-0.2233 0.87727,-0.33495 1.42871,-0.33496 0.55598,1e-5 1.02766,0.14129 1.41504,0.42383 0.39192,0.28256 0.68131,0.69272 0.86816,1.23047"
           id="path3159"
           style="font-size:14px" />
        <path
           d="m 459.7832,581.8407 0,-4.63477 1.25782,0 0,4.58692 c -10e-6,0.72461 0.14127,1.2692 0.42382,1.63379 0.28255,0.36002 0.70638,0.54004 1.27149,0.54003 0.67903,10e-6 1.21451,-0.21647 1.60644,-0.64941 0.39648,-0.43294 0.59472,-1.02311 0.59473,-1.77051 l 0,-4.34082 1.25781,0 0,7.65625 -1.25781,0 0,-1.17578 c -0.30534,0.46485 -0.66081,0.8112 -1.06641,1.03906 -0.40104,0.22331 -0.86816,0.33496 -1.40136,0.33496 -0.87956,0 -1.54721,-0.27343 -2.00293,-0.82031 -0.45573,-0.54687 -0.6836,-1.34668 -0.6836,-2.39941 m 3.16504,-4.81934 0,0"
           id="path3161"
           style="font-size:14px" />
        <path
           d="m 468.7998,574.22546 1.25782,0 0,10.63672 -1.25782,0 0,-10.63672"
           id="path3163"
           style="font-size:14px" />
        <path
           d="m 473.92676,575.0321 0,2.17383 2.59082,0 0,0.97754 -2.59082,0 0,4.15625 c 0,0.62435 0.0843,1.02539 0.25293,1.20313 0.17317,0.17773 0.5218,0.2666 1.0459,0.2666 l 1.29199,0 0,1.05273 -1.29199,0 c -0.97071,0 -1.64063,-0.18001 -2.00977,-0.54004 -0.36914,-0.36458 -0.55371,-1.02539 -0.55371,-1.98242 l 0,-4.15625 -0.92285,0 0,-0.97754 0.92285,0 0,-2.17383 1.26465,0"
           id="path3165"
           style="font-size:14px" />
        <path
           d="m 478.17871,577.20593 1.25781,0 0,7.65625 -1.25781,0 0,-7.65625 m 0,-2.98047 1.25781,0 0,1.59278 -1.25781,0 0,-1.59278"
           id="path3167"
           style="font-size:14px" />
        <path
           d="m 483.27832,583.71375 0,4.06054 -1.26465,0 0,-10.56836 1.26465,0 0,1.16211 c 0.26432,-0.45572 0.597,-0.79296 0.99805,-1.01172 0.40559,-0.2233 0.88866,-0.33495 1.44922,-0.33496 0.92968,1e-5 1.68391,0.36915 2.26269,1.10742 0.58333,0.73829 0.87499,1.70899 0.875,2.91211 -10e-6,1.20313 -0.29167,2.17383 -0.875,2.91211 -0.57878,0.73828 -1.33301,1.10742 -2.26269,1.10742 -0.56056,0 -1.04363,-0.10937 -1.44922,-0.32812 -0.40105,-0.22331 -0.73373,-0.56283 -0.99805,-1.01855 m 4.2793,-2.67286 c -10e-6,-0.92512 -0.19142,-1.64973 -0.57422,-2.17382 -0.37826,-0.52864 -0.90007,-0.79297 -1.56543,-0.79297 -0.66537,0 -1.18946,0.26433 -1.57227,0.79297 -0.37825,0.52409 -0.56738,1.2487 -0.56738,2.17382 0,0.92514 0.18913,1.65202 0.56738,2.18067 0.38281,0.52409 0.9069,0.78613 1.57227,0.78613 0.66536,0 1.18717,-0.26204 1.56543,-0.78613 0.3828,-0.52865 0.57421,-1.25553 0.57422,-2.18067"
           id="path3169"
           style="font-size:14px" />
        <path
           d="m 490.94824,574.22546 1.25781,0 0,10.63672 -1.25781,0 0,-10.63672"
           id="path3171"
           style="font-size:14px" />
        <path
           d="m 494.83105,577.20593 1.25782,0 0,7.65625 -1.25782,0 0,-7.65625 m 0,-2.98047 1.25782,0 0,1.59278 -1.25782,0 0,-1.59278"
           id="path3173"
           style="font-size:14px" />
        <path
           d="m 505.2627,580.7196 0,0.61524 -5.78321,0 c 0.0547,0.86589 0.31445,1.52669 0.7793,1.98242 0.4694,0.45117 1.12109,0.67676 1.95508,0.67676 0.48306,0 0.95019,-0.0593 1.40136,-0.17774 0.45573,-0.11848 0.9069,-0.29622 1.35352,-0.5332 l 0,1.18945 c -0.45118,0.19141 -0.91374,0.33724 -1.3877,0.4375 -0.47396,0.10026 -0.95475,0.15039 -1.44238,0.15039 -1.22136,0 -2.18978,-0.35546 -2.90527,-1.0664 -0.71094,-0.71094 -1.06641,-1.67252 -1.06641,-2.88477 0,-1.25325 0.33724,-2.24674 1.01172,-2.98047 0.67903,-0.73827 1.59277,-1.10741 2.74121,-1.10742 1.02994,1e-5 1.84342,0.33269 2.44043,0.99805 0.60156,0.66081 0.90234,1.56088 0.90235,2.70019 m -1.25782,-0.36914 c -0.009,-0.68814 -0.2028,-1.2373 -0.58105,-1.64746 -0.37371,-0.41015 -0.87045,-0.61522 -1.49024,-0.61523 -0.70182,10e-6 -1.26465,0.19825 -1.68847,0.59473 -0.41928,0.39649 -0.66081,0.95475 -0.72461,1.6748 l 4.48437,-0.007"
           id="path3175"
           style="font-size:14px" />
        <path
           d="m 511.76367,578.38171 c -0.14128,-0.082 -0.29623,-0.14127 -0.46484,-0.17773 -0.16407,-0.041 -0.34636,-0.0615 -0.54688,-0.0615 -0.71094,0 -1.25781,0.23242 -1.64062,0.69726 -0.37826,0.46029 -0.56739,1.12338 -0.56738,1.98926 l 0,4.0332 -1.26465,0 0,-7.65625 1.26465,0 0,1.18946 c 0.26432,-0.46484 0.60839,-0.80892 1.03222,-1.03223 0.42383,-0.22786 0.9388,-0.34179 1.54492,-0.3418 0.0866,10e-6 0.18229,0.007 0.28711,0.0205 0.10482,0.009 0.22103,0.0251 0.34864,0.0479 l 0.007,1.29199"
           id="path3177"
           style="font-size:14px" />
      </g>
      <g
         transform="translate(-125,-87.36218)"
         id="text3833-8-9-68"
         style="font-size:24px;font-style:normal;font-weight:normal;line-height:125%;letter-spacing:0px;word-spacing:0px;fill:#000000;fill-opacity:1;stroke:none;font-family:Bitstream Vera Sans">
        <path
           d="m 406.12863,191.0068 1.46633,0 0,-5.06106 -1.59519,0.31993 0,-0.81759 1.5863,-0.31993 0.89757,0 0,5.87865 1.46633,0 0,0.75538 -3.82134,0 0,-0.75538"
           id="path3180"
           style="font-size:65.00091553%;baseline-shift:super" />
        <path
           d="m 411.77622,185.12815 3.52363,0 0,0.75539 -2.7016,0 0,1.62629 c 0.13034,-0.0444 0.26068,-0.077 0.39102,-0.0978 0.13034,-0.0237 0.26068,-0.0355 0.39102,-0.0355 0.74057,0 1.3271,0.20292 1.7596,0.60874 0.43249,0.40584 0.64873,0.95534 0.64874,1.64851 -1e-5,0.71391 -0.22218,1.26934 -0.66651,1.66629 -0.44435,0.39398 -1.07087,0.59097 -1.87957,0.59097 -0.27846,0 -0.56284,-0.0237 -0.85314,-0.0711 -0.28734,-0.0474 -0.58505,-0.11849 -0.89313,-0.21329 l 0,-0.90201 c 0.26661,0.14515 0.5421,0.25327 0.82648,0.32437 0.28438,0.0711 0.58505,0.10664 0.90201,0.10664 0.51248,0 0.91831,-0.13478 1.2175,-0.40435 0.29919,-0.26957 0.44878,-0.63541 0.44879,-1.09753 -10e-6,-0.46211 -0.1496,-0.82795 -0.44879,-1.09752 -0.29919,-0.26957 -0.70502,-0.40435 -1.2175,-0.40435 -0.23994,0 -0.47989,0.0267 -0.71983,0.08 -0.23698,0.0533 -0.47989,0.13627 -0.72872,0.24883 l 0,-3.33257"
           id="path3182"
           style="font-size:65.00091553%;baseline-shift:super" />
        <path
           d="m 418.33471,191.0068 3.13261,0 0,0.75538 -4.21236,0 0,-0.75538 c 0.34066,-0.35251 0.80426,-0.82499 1.39079,-1.41745 0.58949,-0.59542 0.95978,-0.97903 1.11085,-1.15085 0.28734,-0.32288 0.4873,-0.59541 0.59987,-0.81759 0.11552,-0.22513 0.17329,-0.44582 0.17329,-0.66207 0,-0.3525 -0.12442,-0.63984 -0.37325,-0.86202 -0.24587,-0.22217 -0.56728,-0.33325 -0.96422,-0.33326 -0.28142,10e-6 -0.57913,0.0489 -0.89313,0.14664 -0.31104,0.0978 -0.6443,0.24587 -0.99977,0.44434 l 0,-0.90646 c 0.3614,-0.14515 0.6991,-0.25475 1.0131,-0.32881 0.314,-0.074 0.60134,-0.11108 0.86203,-0.11109 0.68724,1e-5 1.23526,0.17182 1.64406,0.51544 0.40879,0.34363 0.61319,0.80278 0.61319,1.37746 0,0.27253 -0.0518,0.53173 -0.15552,0.7776 -0.10072,0.24291 -0.28586,0.53025 -0.55542,0.86202 -0.0741,0.0859 -0.30957,0.33474 -0.70651,0.7465 -0.39695,0.40879 -0.95682,0.98199 -1.67961,1.7196"
           id="path3184"
           style="font-size:65.00091553%;baseline-shift:super" />
        <path
           d="m 423.75669,187.15613 6.45313,0 0,1.16211 -5.07227,0 0,3.02148 4.86035,0 0,1.16211 -4.86035,0 0,3.69824 5.19531,0 0,1.16211 -6.57617,0 0,-10.20605"
           id="path3186"
           style="font-size:14px" />
        <path
           d="m 432.4315,194.3407 0,-4.63477 1.25781,0 0,4.58692 c 0,0.72461 0.14127,1.2692 0.42383,1.63379 0.28255,0.36002 0.70637,0.54004 1.27148,0.54003 0.67903,1e-5 1.21451,-0.21647 1.60645,-0.64941 0.39647,-0.43294 0.59472,-1.02311 0.59472,-1.77051 l 0,-4.34082 1.25782,0 0,7.65625 -1.25782,0 0,-1.17578 c -0.30534,0.46485 -0.66081,0.8112 -1.0664,1.03906 -0.40105,0.22331 -0.86817,0.33496 -1.40137,0.33496 -0.87956,0 -1.5472,-0.27343 -2.00293,-0.82031 -0.45573,-0.54687 -0.6836,-1.34668 -0.68359,-2.39941 m 3.16503,-4.81934 0,0"
           id="path3188"
           style="font-size:14px" />
      </g>
      <g
         transform="translate(-125,-87.36218)"
         id="text3833-8-9-2"
         style="font-size:24px;font-style:normal;font-weight:normal;line-height:125%;letter-spacing:0px;word-spacing:0px;fill:#000000;fill-opacity:1;stroke:none;font-family:Bitstream Vera Sans">
        <path
           d="m 412.28027,231.17566 c 0.31445,-0.5651 0.69043,-0.98209 1.12793,-1.25098 0.43749,-0.26887 0.95247,-0.40331 1.54492,-0.40332 0.79752,1e-5 1.41275,0.28028 1.84571,0.84082 0.43293,0.556 0.6494,1.34897 0.64941,2.37891 l 0,4.62109 -1.26465,0 0,-4.58008 c -10e-6,-0.73371 -0.12989,-1.27831 -0.38964,-1.63378 -0.25978,-0.35547 -0.65626,-0.5332 -1.18946,-0.53321 -0.6517,1e-5 -1.16667,0.21648 -1.54492,0.64942 -0.37826,0.43294 -0.56739,1.02311 -0.56738,1.7705 l 0,4.32715 -1.26465,0 0,-4.58008 c -10e-6,-0.73827 -0.12989,-1.28287 -0.38965,-1.63378 -0.25977,-0.35547 -0.66081,-0.5332 -1.20312,-0.53321 -0.64259,1e-5 -1.153,0.21876 -1.53125,0.65625 -0.37826,0.43295 -0.56739,1.02084 -0.56739,1.76367 l 0,4.32715 -1.26465,0 0,-7.65625 1.26465,0 0,1.18946 c 0.28711,-0.4694 0.63118,-0.81575 1.03223,-1.03907 0.40104,-0.2233 0.87727,-0.33495 1.42871,-0.33496 0.55598,1e-5 1.02766,0.14129 1.41504,0.42383 0.39192,0.28256 0.68131,0.69272 0.86816,1.23047"
           id="path3191"
           style="font-size:14px" />
        <path
           d="m 423.44336,233.51355 c -1.01628,0 -1.72038,0.11621 -2.11231,0.34863 -0.39192,0.23243 -0.58789,0.62891 -0.58789,1.18946 0,0.44661 0.14584,0.80208 0.4375,1.0664 0.29623,0.25977 0.69727,0.38965 1.20313,0.38965 0.69726,0 1.25553,-0.24609 1.6748,-0.73828 0.42383,-0.49674 0.63574,-1.15527 0.63575,-1.97559 l 0,-0.28027 -1.25098,0 m 2.50879,-0.51953 0,4.36816 -1.25781,0 0,-1.16211 c -0.28712,0.46485 -0.64487,0.80892 -1.07325,1.03223 -0.42839,0.21875 -0.95247,0.32812 -1.57226,0.32812 -0.78386,0 -1.40821,-0.21875 -1.87305,-0.65625 -0.46029,-0.44205 -0.69043,-1.03222 -0.69043,-1.7705 0,-0.86133 0.28711,-1.51074 0.86133,-1.94825 0.57877,-0.43749 1.4401,-0.65624 2.58398,-0.65625 l 1.76368,0 0,-0.12304 c -1e-5,-0.57877 -0.19142,-1.02539 -0.57422,-1.33985 -0.37826,-0.319 -0.91147,-0.4785 -1.59961,-0.47851 -0.43751,1e-5 -0.86361,0.0524 -1.27832,0.15723 -0.41472,0.10482 -0.81348,0.26205 -1.19629,0.47167 l 0,-1.1621 c 0.46028,-0.17773 0.9069,-0.30989 1.33984,-0.39649 0.43294,-0.0911 0.85449,-0.13671 1.26465,-0.13672 1.10742,1e-5 1.93456,0.28712 2.48145,0.86133 0.54686,0.57423 0.8203,1.44467 0.82031,2.61133"
           id="path3193"
           style="font-size:14px" />
        <path
           d="m 433.58789,233.44519 c -1e-5,-0.91145 -0.18913,-1.61783 -0.56738,-2.11914 -0.37371,-0.5013 -0.90007,-0.75195 -1.5791,-0.75195 -0.67449,0 -1.20085,0.25065 -1.57911,0.75195 -0.3737,0.50131 -0.56054,1.20769 -0.56054,2.11914 0,0.9069 0.18684,1.61101 0.56054,2.11231 0.37826,0.5013 0.90462,0.75195 1.57911,0.75195 0.67903,0 1.20539,-0.25065 1.5791,-0.75195 0.37825,-0.5013 0.56737,-1.20541 0.56738,-2.11231 m 1.25781,2.9668 c 0,1.30338 -0.28939,2.27181 -0.86816,2.90527 -0.57878,0.63802 -1.46518,0.95703 -2.65918,0.95703 -0.44206,0 -0.85905,-0.0342 -1.25098,-0.10254 -0.39193,-0.0638 -0.77246,-0.16406 -1.1416,-0.30078 l 0,-1.22363 c 0.36914,0.20052 0.73372,0.34863 1.09375,0.44433 0.36002,0.0957 0.72689,0.14356 1.10059,0.14356 0.82486,0 1.44237,-0.21647 1.85254,-0.64941 0.41015,-0.42839 0.61522,-1.0778 0.61523,-1.94825 l 0,-0.62207 c -0.25977,0.45118 -0.59245,0.78841 -0.99805,1.01172 -0.4056,0.22331 -0.89095,0.33496 -1.45605,0.33496 -0.93881,0 -1.69532,-0.35774 -2.26953,-1.07324 -0.57422,-0.71549 -0.86133,-1.66341 -0.86133,-2.84375 0,-1.18489 0.28711,-2.13508 0.86133,-2.85059 0.57421,-0.71548 1.33072,-1.07323 2.26953,-1.07324 0.5651,1e-5 1.05045,0.11166 1.45605,0.33496 0.4056,0.22332 0.73828,0.56056 0.99805,1.01172 l 0,-1.16211 1.25781,0 0,6.70606"
           id="path3195"
           style="font-size:14px" />
        <path
           d="m 443.80078,232.74109 0,4.62109 -1.25781,0 0,-4.58008 c -1e-5,-0.7246 -0.14128,-1.26692 -0.42383,-1.62695 -0.28256,-0.36002 -0.70638,-0.54003 -1.27148,-0.54004 -0.67904,1e-5 -1.21453,0.21648 -1.60645,0.64942 -0.39193,0.43294 -0.58789,1.02311 -0.58789,1.7705 l 0,4.32715 -1.26465,0 0,-7.65625 1.26465,0 0,1.18946 c 0.30078,-0.46028 0.65397,-0.80436 1.05957,-1.03223 0.41015,-0.22786 0.88183,-0.34179 1.41504,-0.3418 0.87955,1e-5 1.54492,0.27345 1.99609,0.82031 0.45117,0.54233 0.67675,1.34213 0.67676,2.39942"
           id="path3197"
           style="font-size:14px" />
        <path
           d="m 446.50098,235.62585 1.44238,0 0,1.73633 -1.44238,0 0,-1.73633"
           id="path3199"
           style="font-size:14px" />
        <path
           d="m 455.29199,227.15613 5.86524,0 0,1.16211 -4.48438,0 0,3.00781 4.04688,0 0,1.16211 -4.04688,0 0,4.87402 -1.38086,0 0,-10.20605"
           id="path3201"
           style="font-size:14px" />
        <path
           d="m 469.08691,233.2196 0,0.61524 -5.7832,0 c 0.0547,0.86589 0.31445,1.52669 0.7793,1.98242 0.4694,0.45117 1.12109,0.67676 1.95508,0.67676 0.48306,0 0.95019,-0.0593 1.40136,-0.17774 0.45573,-0.11848 0.9069,-0.29622 1.35352,-0.5332 l 0,1.18945 c -0.45118,0.19141 -0.91374,0.33724 -1.3877,0.4375 -0.47396,0.10026 -0.95475,0.15039 -1.44238,0.15039 -1.22136,0 -2.18978,-0.35546 -2.90527,-1.0664 -0.71094,-0.71094 -1.06641,-1.67252 -1.06641,-2.88477 0,-1.25325 0.33724,-2.24674 1.01172,-2.98047 0.67903,-0.73827 1.59277,-1.10741 2.74121,-1.10742 1.02994,1e-5 1.84342,0.33269 2.44043,0.99805 0.60156,0.66081 0.90234,1.56088 0.90234,2.70019 m -1.25781,-0.36914 c -0.009,-0.68814 -0.2028,-1.2373 -0.58105,-1.64746 -0.37371,-0.41015 -0.87045,-0.61522 -1.49024,-0.61523 -0.70182,1e-5 -1.26465,0.19825 -1.68847,0.59473 -0.41928,0.39649 -0.66081,0.95475 -0.72461,1.6748 l 4.48437,-0.007"
           id="path3203"
           style="font-size:14px" />
      </g>
      <g
         transform="translate(-125,-87.36218)"
         id="text3833-8-9-2-6"
         style="font-size:24px;font-style:normal;font-weight:normal;line-height:125%;letter-spacing:0px;word-spacing:0px;fill:#000000;fill-opacity:1;stroke:none;font-family:Bitstream Vera Sans">
        <path
           d="m 286.37402,127.15613 1.85938,0 4.52539,8.53808 0,-8.53808 1.33984,0 0,10.20605 -1.85937,0 -4.52539,-8.53808 0,8.53808 -1.33985,0 0,-10.20605"
           id="path3206"
           style="font-size:14px" />
        <path
           d="m 303.34082,133.2196 0,0.61524 -5.7832,0 c 0.0547,0.86589 0.31445,1.52669 0.77929,1.98242 0.4694,0.45117 1.12109,0.67676 1.95508,0.67676 0.48307,0 0.95019,-0.0593 1.40137,-0.17774 0.45572,-0.11848 0.90689,-0.29622 1.35351,-0.5332 l 0,1.18945 c -0.45117,0.19141 -0.91374,0.33724 -1.38769,0.4375 -0.47396,0.10026 -0.95476,0.15039 -1.44238,0.15039 -1.22136,0 -2.18978,-0.35546 -2.90528,-1.0664 -0.71094,-0.71094 -1.0664,-1.67252 -1.0664,-2.88477 0,-1.25325 0.33724,-2.24674 1.01172,-2.98047 0.67903,-0.73827 1.59277,-1.10741 2.74121,-1.10742 1.02994,1e-5 1.84341,0.33269 2.44043,0.99805 0.60155,0.66081 0.90233,1.56088 0.90234,2.70019 m -1.25781,-0.36914 c -0.009,-0.68814 -0.20281,-1.2373 -0.58106,-1.64746 -0.3737,-0.41015 -0.87044,-0.61522 -1.49023,-0.61523 -0.70183,1e-5 -1.26465,0.19825 -1.68848,0.59473 -0.41927,0.39649 -0.66081,0.95475 -0.72461,1.6748 l 4.48438,-0.007"
           id="path3208"
           style="font-size:14px" />
        <path
           d="m 305.27539,134.3407 0,-4.63477 1.25781,0 0,4.58692 c 0,0.72461 0.14128,1.2692 0.42383,1.63379 0.28255,0.36002 0.70638,0.54004 1.27149,0.54003 0.67903,1e-5 1.21451,-0.21647 1.60644,-0.64941 0.39648,-0.43294 0.59472,-1.02311 0.59473,-1.77051 l 0,-4.34082 1.25781,0 0,7.65625 -1.25781,0 0,-1.17578 c -0.30535,0.46485 -0.66082,0.8112 -1.06641,1.03906 -0.40105,0.22331 -0.86817,0.33496 -1.40137,0.33496 -0.87956,0 -1.5472,-0.27343 -2.00293,-0.82031 -0.45573,-0.54687 -0.68359,-1.34668 -0.68359,-2.39941 m 3.16504,-4.81934 0,0"
           id="path3210"
           style="font-size:14px" />
        <path
           d="m 315.53613,127.5321 0,2.17383 2.59082,0 0,0.97754 -2.59082,0 0,4.15625 c 0,0.62435 0.0843,1.02539 0.25293,1.20313 0.17318,0.17773 0.52181,0.2666 1.0459,0.2666 l 1.29199,0 0,1.05273 -1.29199,0 c -0.97071,0 -1.64063,-0.18001 -2.00976,-0.54004 -0.36915,-0.36458 -0.55372,-1.02539 -0.55372,-1.98242 l 0,-4.15625 -0.92285,0 0,-0.97754 0.92285,0 0,-2.17383 1.26465,0"
           id="path3212"
           style="font-size:14px" />
        <path
           d="m 324.22461,130.88171 c -0.14128,-0.082 -0.29623,-0.14127 -0.46484,-0.17773 -0.16407,-0.041 -0.34636,-0.0615 -0.54688,-0.0615 -0.71094,0 -1.25782,0.23242 -1.64062,0.69726 -0.37826,0.46029 -0.56739,1.12338 -0.56739,1.98926 l 0,4.0332 -1.26465,0 0,-7.65625 1.26465,0 0,1.18946 c 0.26432,-0.46484 0.6084,-0.80892 1.03223,-1.03223 0.42382,-0.22786 0.9388,-0.34179 1.54492,-0.3418 0.0866,1e-5 0.18229,0.007 0.28711,0.0205 0.10481,0.009 0.22102,0.0251 0.34863,0.0479 l 0.007,1.29199"
           id="path3214"
           style="font-size:14px" />
        <path
           d="m 325.55762,129.70593 1.25781,0 0,7.65625 -1.25781,0 0,-7.65625 m 0,-2.98047 1.25781,0 0,1.59278 -1.25781,0 0,-1.59278"
           id="path3216"
           style="font-size:14px" />
        <path
           d="m 335.80469,132.74109 0,4.62109 -1.25782,0 0,-4.58008 c 0,-0.7246 -0.14128,-1.26692 -0.42382,-1.62695 -0.28256,-0.36002 -0.70639,-0.54003 -1.27149,-0.54004 -0.67904,1e-5 -1.21452,0.21648 -1.60644,0.64942 -0.39193,0.43294 -0.5879,1.02311 -0.58789,1.7705 l 0,4.32715 -1.26465,0 0,-7.65625 1.26465,0 0,1.18946 c 0.30077,-0.46028 0.65396,-0.80436 1.05957,-1.03223 0.41015,-0.22786 0.88183,-0.34179 1.41504,-0.3418 0.87955,1e-5 1.54491,0.27345 1.99609,0.82031 0.45116,0.54233 0.67675,1.34213 0.67676,2.39942"
           id="path3218"
           style="font-size:14px" />
        <path
           d="m 341.29395,130.58777 c -0.67449,1e-5 -1.20769,0.26433 -1.59961,0.79297 -0.39193,0.52409 -0.5879,1.24414 -0.58789,2.16015 -10e-6,0.91602 0.19368,1.63835 0.58105,2.167 0.39192,0.52409 0.92741,0.78613 1.60645,0.78613 0.66991,0 1.20084,-0.26432 1.59277,-0.79297 0.39192,-0.52864 0.58788,-1.2487 0.58789,-2.16016 -10e-6,-0.90689 -0.19597,-1.62467 -0.58789,-2.15332 -0.39193,-0.53319 -0.92286,-0.79979 -1.59277,-0.7998 m 0,-1.06641 c 1.09374,1e-5 1.95279,0.35548 2.57714,1.06641 0.62435,0.71094 0.93652,1.69532 0.93653,2.95312 -10e-6,1.25326 -0.31218,2.23764 -0.93653,2.95313 -0.62435,0.71094 -1.4834,1.0664 -2.57714,1.0664 -1.09832,0 -1.95964,-0.35546 -2.58399,-1.0664 -0.61979,-0.71549 -0.92969,-1.69987 -0.92969,-2.95313 0,-1.2578 0.3099,-2.24218 0.92969,-2.95312 0.62435,-0.71093 1.48567,-1.0664 2.58399,-1.06641"
           id="path3220"
           style="font-size:14px" />
      </g>
      <g
         transform="translate(-125,-87.36218)"
         id="text3833-8-9-2-6-4"
         style="font-size:24px;font-style:normal;font-weight:normal;line-height:125%;letter-spacing:0px;word-spacing:0px;fill:#000000;fill-opacity:1;stroke:none;font-family:Bitstream Vera Sans">
        <path
           d="m 157.75488,338.29089 0,3.83496 1.73633,0 c 0.64257,10e-6 1.13932,-0.16633 1.49024,-0.49902 0.3509,-0.33268 0.52636,-0.80663 0.52636,-1.42187 0,-0.61067 -0.17546,-1.08235 -0.52636,-1.41504 -0.35092,-0.33268 -0.84767,-0.49902 -1.49024,-0.49903 l -1.73633,0 m -1.38086,-1.13476 3.11719,0 c 1.14388,10e-6 2.00748,0.25977 2.59082,0.77929 0.58788,0.51499 0.88183,1.2715 0.88184,2.26954 -10e-6,1.00716 -0.29396,1.76823 -0.88184,2.2832 -0.58334,0.51498 -1.44694,0.77246 -2.59082,0.77246 l -1.73633,0 0,4.10156 -1.38086,0 0,-10.20605"
           id="path3223"
           style="font-size:14px" />
        <path
           d="m 171.13281,342.74109 0,4.62109 -1.25781,0 0,-4.58008 c -1e-5,-0.7246 -0.14128,-1.26692 -0.42383,-1.62695 -0.28256,-0.36002 -0.70638,-0.54003 -1.27148,-0.54004 -0.67904,10e-6 -1.21452,0.21648 -1.60645,0.64942 -0.39193,0.43294 -0.58789,1.02311 -0.58789,1.7705 l 0,4.32715 -1.26465,0 0,-10.63672 1.26465,0 0,4.16993 c 0.30078,-0.46028 0.65397,-0.80436 1.05957,-1.03223 0.41015,-0.22786 0.88183,-0.34179 1.41504,-0.3418 0.87955,10e-6 1.54492,0.27345 1.99609,0.82031 0.45117,0.54233 0.67675,1.34213 0.67676,2.39942"
           id="path3225"
           style="font-size:14px" />
        <path
           d="m 176.62207,340.58777 c -0.67448,1e-5 -1.20769,0.26433 -1.59961,0.79297 -0.39193,0.52409 -0.58789,1.24414 -0.58789,2.16015 0,0.91602 0.19368,1.63835 0.58105,2.167 0.39193,0.52409 0.92741,0.78613 1.60645,0.78613 0.66992,0 1.20084,-0.26432 1.59277,-0.79297 0.39192,-0.52864 0.58789,-1.2487 0.58789,-2.16016 0,-0.90689 -0.19597,-1.62467 -0.58789,-2.15332 -0.39193,-0.53319 -0.92285,-0.79979 -1.59277,-0.7998 m 0,-1.06641 c 1.09374,10e-6 1.95279,0.35548 2.57715,1.06641 0.62434,0.71094 0.93651,1.69532 0.93652,2.95312 -1e-5,1.25326 -0.31218,2.23764 -0.93652,2.95313 -0.62436,0.71094 -1.48341,1.0664 -2.57715,1.0664 -1.09831,0 -1.95964,-0.35546 -2.58398,-1.0664 -0.6198,-0.71549 -0.92969,-1.69987 -0.92969,-2.95313 0,-1.2578 0.30989,-2.24218 0.92969,-2.95312 0.62434,-0.71093 1.48567,-1.0664 2.58398,-1.06641"
           id="path3227"
           style="font-size:14px" />
        <path
           d="m 183.45801,337.5321 0,2.17383 2.59082,0 0,0.97754 -2.59082,0 0,4.15625 c 0,0.62435 0.0843,1.02539 0.25293,1.20313 0.17317,0.17773 0.5218,0.2666 1.0459,0.2666 l 1.29199,0 0,1.05273 -1.29199,0 c -0.97071,0 -1.64063,-0.18001 -2.00977,-0.54004 -0.36914,-0.36458 -0.55371,-1.02539 -0.55371,-1.98242 l 0,-4.15625 -0.92285,0 0,-0.97754 0.92285,0 0,-2.17383 1.26465,0"
           id="path3229"
           style="font-size:14px" />
        <path
           d="m 190.67676,340.58777 c -0.67448,1e-5 -1.20769,0.26433 -1.59961,0.79297 -0.39193,0.52409 -0.58789,1.24414 -0.58789,2.16015 0,0.91602 0.19368,1.63835 0.58105,2.167 0.39193,0.52409 0.92741,0.78613 1.60645,0.78613 0.66991,0 1.20084,-0.26432 1.59277,-0.79297 0.39192,-0.52864 0.58789,-1.2487 0.58789,-2.16016 0,-0.90689 -0.19597,-1.62467 -0.58789,-2.15332 -0.39193,-0.53319 -0.92286,-0.79979 -1.59277,-0.7998 m 0,-1.06641 c 1.09374,10e-6 1.95279,0.35548 2.57715,1.06641 0.62434,0.71094 0.93651,1.69532 0.93652,2.95312 -1e-5,1.25326 -0.31218,2.23764 -0.93652,2.95313 -0.62436,0.71094 -1.48341,1.0664 -2.57715,1.0664 -1.09831,0 -1.95964,-0.35546 -2.58399,-1.0664 -0.61979,-0.71549 -0.92968,-1.69987 -0.92968,-2.95313 0,-1.2578 0.30989,-2.24218 0.92968,-2.95312 0.62435,-0.71093 1.48568,-1.0664 2.58399,-1.06641"
           id="path3231"
           style="font-size:14px" />
        <path
           d="m 202.63281,342.74109 0,4.62109 -1.25781,0 0,-4.58008 c -1e-5,-0.7246 -0.14128,-1.26692 -0.42383,-1.62695 -0.28256,-0.36002 -0.70638,-0.54003 -1.27148,-0.54004 -0.67904,10e-6 -1.21452,0.21648 -1.60645,0.64942 -0.39193,0.43294 -0.58789,1.02311 -0.58789,1.7705 l 0,4.32715 -1.26465,0 0,-7.65625 1.26465,0 0,1.18946 c 0.30078,-0.46028 0.65397,-0.80436 1.05957,-1.03223 0.41015,-0.22786 0.88183,-0.34179 1.41504,-0.3418 0.87955,10e-6 1.54492,0.27345 1.99609,0.82031 0.45117,0.54233 0.67675,1.34213 0.67676,2.39942"
           id="path3233"
           style="font-size:14px" />
      </g>
    </g>
    <g
       transform="translate(-125,-87.36218)"
       id="g7324">
      <path
         d="m 185,512.36218 65,-320"
         id="path3940"
         style="fill:none;stroke:#000000;stroke-width:1.20000005;stroke-linecap:butt;stroke-linejoin:miter;stroke-miterlimit:4;stroke-opacity:1;stroke-dasharray:none;marker-start:url(#Arrow1Mstart);marker-end:none" />
      <path
         d="m 190,517.36218 45,-5"
         id="path5765"
         style="fill:none;stroke:#000000;stroke-width:1.20000005;stroke-linecap:butt;stroke-linejoin:miter;stroke-miterlimit:4;stroke-opacity:1;stroke-dasharray:none;marker-start:none;marker-end:url(#Arrow1Mend)" />
      <path
         d="m 250,192.36218 40,-90"
         id="path6913"
         style="fill:none;stroke:#000000;stroke-width:1.20000005;stroke-linecap:butt;stroke-linejoin:miter;stroke-miterlimit:4;stroke-opacity:1;stroke-dasharray:2.4, 1.2;stroke-dashoffset:0;marker-start:none;marker-end:url(#Arrow1Mend)" />
    </g>
  </g>
</svg>
