<?xml version="1.0" encoding="UTF-8" standalone="no"?>
<svg
   xmlns:dc="http://purl.org/dc/elements/1.1/"
   xmlns:cc="http://creativecommons.org/ns#"
   xmlns:rdf="http://www.w3.org/1999/02/22-rdf-syntax-ns#"
   xmlns:svg="http://www.w3.org/2000/svg"
   xmlns="http://www.w3.org/2000/svg"
   xmlns:sodipodi="http://sodipodi.sourceforge.net/DTD/sodipodi-0.dtd"
   xmlns:inkscape="http://www.inkscape.org/namespaces/inkscape"
   version="1.1"
   width="729.23993"
   height="397.06143"
   id="svg97"
   sodipodi:docname="harm_approx.svg"
   inkscape:version="0.92.2 2405546, 2018-03-11">
  <metadata
     id="metadata101">
    <rdf:RDF>
      <cc:Work
         rdf:about="">
        <dc:format>image/svg+xml</dc:format>
        <dc:type
           rdf:resource="http://purl.org/dc/dcmitype/StillImage" />
        <dc:title></dc:title>
      </cc:Work>
    </rdf:RDF>
  </metadata>
  <sodipodi:namedview
     pagecolor="#ffffff"
     bordercolor="#666666"
     borderopacity="1"
     objecttolerance="10"
     gridtolerance="10"
     guidetolerance="10"
     inkscape:pageopacity="0"
     inkscape:pageshadow="2"
     inkscape:window-width="3840"
     inkscape:window-height="2037"
     id="namedview99"
     showgrid="false"
     fit-margin-top="0"
     fit-margin-left="0"
     fit-margin-right="0"
     fit-margin-bottom="0"
     inkscape:zoom="2.5501769"
     inkscape:cx="319.75945"
     inkscape:cy="211.00297"
     inkscape:window-x="0"
     inkscape:window-y="0"
     inkscape:window-maximized="1"
     inkscape:current-layer="svg97" />
  <defs
     id="defs5">
    <marker
       inkscape:stockid="Arrow2Lend"
       orient="auto"
       refY="0"
       refX="0"
       id="Arrow2Lend"
       style="overflow:visible"
       inkscape:isstock="true">
      <path
         id="path937"
         style="fill:#000000;fill-opacity:1;fill-rule:evenodd;stroke:#000000;stroke-width:0.625;stroke-linejoin:round;stroke-opacity:1"
         d="M 8.7185878,4.0337352 -2.2072895,0.01601326 8.7185884,-4.0017078 c -1.7454984,2.3720609 -1.7354408,5.6174519 -6e-7,8.035443 z"
         transform="matrix(-1.1,0,0,-1.1,-1.1,0)"
         inkscape:connector-curvature="0" />
    </marker>
    <marker
       inkscape:stockid="Arrow1Lend"
       orient="auto"
       refY="0"
       refX="0"
       id="Arrow1Lend"
       style="overflow:visible"
       inkscape:isstock="true">
      <path
         id="path919"
         d="M 0,0 5,-5 -12.5,0 5,5 Z"
         style="fill:#000000;fill-opacity:1;fill-rule:evenodd;stroke:#000000;stroke-width:1.00000003pt;stroke-opacity:1"
         transform="matrix(-0.8,0,0,-0.8,-10,0)"
         inkscape:connector-curvature="0" />
    </marker>
    <marker
       inkscape:stockid="Arrow2Lstart"
       orient="auto"
       refY="0"
       refX="0"
       id="Arrow2Lstart"
       style="overflow:visible"
       inkscape:isstock="true">
      <path
         id="path934"
         style="fill:#000000;fill-opacity:1;fill-rule:evenodd;stroke:#000000;stroke-width:0.625;stroke-linejoin:round;stroke-opacity:1"
         d="M 8.7185878,4.0337352 -2.2072895,0.01601326 8.7185884,-4.0017078 c -1.7454984,2.3720609 -1.7354408,5.6174519 -6e-7,8.035443 z"
         transform="matrix(1.1,0,0,1.1,1.1,0)"
         inkscape:connector-curvature="0" />
    </marker>
    <clipPath
       id="XOfLoyOiyhRQ">
      <path
         d="M 0,0 H 1540 V 1047 H 0 Z"
         id="path2"
         inkscape:connector-curvature="0"
         style="fill:none;stroke:none" />
    </clipPath>
    <clipPath
       clipPathUnits="userSpaceOnUse"
       id="clipPath910">
      <rect
         style="fill:none;fill-opacity:0.77150538;stroke:#000000;stroke-width:1.00157475;stroke-linecap:butt;stroke-miterlimit:4;stroke-dasharray:none;stroke-dashoffset:0;stroke-opacity:1"
         id="rect912"
         width="690.93243"
         height="577.99915"
         x="109.01205"
         y="281.5629" />
    </clipPath>
    <clipPath
       clipPathUnits="userSpaceOnUse"
       id="clipPath1782">
      <rect
         style="fill:none;fill-opacity:0.77150538;stroke:#000000;stroke-width:2.0999999;stroke-linecap:butt;stroke-miterlimit:4;stroke-dasharray:none;stroke-dashoffset:0;stroke-opacity:1"
         id="rect1784"
         width="729.23993"
         height="397.06143"
         x="159.47656"
         y="497.99213" />
    </clipPath>
  </defs>
  <g
     id="g93"
     transform="translate(-159.47656,-497.99213)"
     clip-path="url(#clipPath1782)">
    <rect
       style="fill:#ffffff;fill-opacity:1;stroke:none"
       id="rect7"
       height="1047"
       width="1540"
       y="0"
       x="0" />
    <path
       style="fill:none;stroke:#000000;stroke-miterlimit:10;stroke-opacity:1;paint-order:fill stroke markers"
       inkscape:connector-curvature="0"
       id="path9"
       stroke-miterlimit="10"
       d="m 220.5,2.5 v 1045" />
    <path
       style="fill:none;stroke:#000000;stroke-miterlimit:10;stroke-opacity:1;paint-order:fill stroke markers"
       inkscape:connector-curvature="0"
       id="path11"
       stroke-miterlimit="10"
       d="m 220.5,1.5 -4,4" />
    <path
       style="fill:none;stroke:#000000;stroke-miterlimit:10;stroke-opacity:1;paint-order:fill stroke markers"
       inkscape:connector-curvature="0"
       id="path13"
       stroke-miterlimit="10"
       d="m 220.5,1.5 4,4" />
    <path
       style="fill:none;stroke:#000000;stroke-miterlimit:10;stroke-opacity:1;paint-order:fill stroke markers"
       inkscape:connector-curvature="0"
       id="path15"
       stroke-miterlimit="10"
       d="m 0.5,830.5 h 1538" />
    <path
       style="fill:none;stroke:#000000;stroke-miterlimit:10;stroke-opacity:1;paint-order:fill stroke markers"
       inkscape:connector-curvature="0"
       id="path17"
       stroke-miterlimit="10"
       d="m 1539.5,830.5 -4,-4" />
    <path
       style="fill:none;stroke:#000000;stroke-miterlimit:10;stroke-opacity:1;paint-order:fill stroke markers"
       inkscape:connector-curvature="0"
       id="path19"
       stroke-miterlimit="10"
       d="m 1539.5,830.5 -4,4" />
    <path
       style="fill:none;stroke:#000000;stroke-miterlimit:10;stroke-opacity:1;paint-order:fill stroke markers"
       inkscape:connector-curvature="0"
       id="path21"
       stroke-miterlimit="10"
       d="m 1.5,830.5 v 3" />
    <path
       style="fill:none;stroke:#000000;stroke-miterlimit:10;stroke-opacity:1;paint-order:fill stroke markers"
       inkscape:connector-curvature="0"
       id="path23"
       stroke-miterlimit="10"
       d="m 74.5,830.5 v 3" />
    <path
       style="fill:none;stroke:#000000;stroke-miterlimit:10;stroke-opacity:1;paint-order:fill stroke markers"
       inkscape:connector-curvature="0"
       id="path25"
       stroke-miterlimit="10"
       d="m 147.5,830.5 v 3" />
    <path
       style="fill:none;stroke:#000000;stroke-miterlimit:10;stroke-opacity:1;paint-order:fill stroke markers"
       inkscape:connector-curvature="0"
       id="path27"
       stroke-miterlimit="10"
       d="m 220.5,830.5 v 3" />
    <path
       style="fill:none;stroke:#000000;stroke-miterlimit:10;stroke-opacity:1;paint-order:fill stroke markers"
       inkscape:connector-curvature="0"
       id="path29"
       stroke-miterlimit="10"
       d="m 293.5,830.5 v 3" />
    <path
       style="fill:none;stroke:#000000;stroke-miterlimit:10;stroke-opacity:1;paint-order:fill stroke markers"
       inkscape:connector-curvature="0"
       id="path31"
       stroke-miterlimit="10"
       d="m 367.5,830.5 v 3" />
    <path
       style="fill:none;stroke:#000000;stroke-miterlimit:10;stroke-opacity:1;paint-order:fill stroke markers"
       inkscape:connector-curvature="0"
       id="path33"
       stroke-miterlimit="10"
       d="m 440.5,830.5 v 3" />
    <path
       style="fill:none;stroke:#000000;stroke-miterlimit:10;stroke-opacity:1;paint-order:fill stroke markers"
       inkscape:connector-curvature="0"
       id="path35"
       stroke-miterlimit="10"
       d="m 513.5,830.5 v 3" />
    <path
       style="fill:none;stroke:#000000;stroke-miterlimit:10;stroke-opacity:1;paint-order:fill stroke markers"
       inkscape:connector-curvature="0"
       id="path37"
       stroke-miterlimit="10"
       d="m 586.5,830.5 v 3" />
    <path
       style="fill:none;stroke:#000000;stroke-miterlimit:10;stroke-opacity:1;paint-order:fill stroke markers"
       inkscape:connector-curvature="0"
       id="path39"
       stroke-miterlimit="10"
       d="m 659.5,830.5 v 3" />
    <path
       style="fill:none;stroke:#000000;stroke-miterlimit:10;stroke-opacity:1;paint-order:fill stroke markers"
       inkscape:connector-curvature="0"
       id="path41"
       stroke-miterlimit="10"
       d="m 733.5,830.5 v 3" />
    <path
       style="fill:none;stroke:#000000;stroke-miterlimit:10;stroke-opacity:1;paint-order:fill stroke markers"
       inkscape:connector-curvature="0"
       id="path43"
       stroke-miterlimit="10"
       d="m 806.5,830.5 v 3" />
    <path
       style="fill:none;stroke:#000000;stroke-miterlimit:10;stroke-opacity:1;paint-order:fill stroke markers"
       inkscape:connector-curvature="0"
       id="path45"
       stroke-miterlimit="10"
       d="m 879.5,830.5 v 3" />
    <path
       style="fill:none;stroke:#000000;stroke-miterlimit:10;stroke-opacity:1;paint-order:fill stroke markers"
       inkscape:connector-curvature="0"
       id="path47"
       stroke-miterlimit="10"
       d="m 952.5,830.5 v 3" />
    <path
       style="fill:none;stroke:#000000;stroke-miterlimit:10;stroke-opacity:1;paint-order:fill stroke markers"
       inkscape:connector-curvature="0"
       id="path49"
       stroke-miterlimit="10"
       d="m 1025.5,830.5 v 3" />
    <path
       style="fill:none;stroke:#000000;stroke-miterlimit:10;stroke-opacity:1;paint-order:fill stroke markers"
       inkscape:connector-curvature="0"
       id="path51"
       stroke-miterlimit="10"
       d="m 1099.5,830.5 v 3" />
    <path
       style="fill:none;stroke:#000000;stroke-miterlimit:10;stroke-opacity:1;paint-order:fill stroke markers"
       inkscape:connector-curvature="0"
       id="path53"
       stroke-miterlimit="10"
       d="m 1172.5,830.5 v 3" />
    <path
       style="fill:none;stroke:#000000;stroke-miterlimit:10;stroke-opacity:1;paint-order:fill stroke markers"
       inkscape:connector-curvature="0"
       id="path55"
       stroke-miterlimit="10"
       d="m 1245.5,830.5 v 3" />
    <path
       style="fill:none;stroke:#000000;stroke-miterlimit:10;stroke-opacity:1;paint-order:fill stroke markers"
       inkscape:connector-curvature="0"
       id="path57"
       stroke-miterlimit="10"
       d="m 1318.5,830.5 v 3" />
    <path
       style="fill:none;stroke:#000000;stroke-miterlimit:10;stroke-opacity:1;paint-order:fill stroke markers"
       inkscape:connector-curvature="0"
       id="path59"
       stroke-miterlimit="10"
       d="m 1391.5,830.5 v 3" />
    <path
       style="fill:none;stroke:#000000;stroke-miterlimit:10;stroke-opacity:1;paint-order:fill stroke markers"
       inkscape:connector-curvature="0"
       id="path61"
       stroke-miterlimit="10"
       d="m 1465.5,830.5 v 3" />
    <path
       style="fill:none;stroke:#000000;stroke-miterlimit:10;stroke-opacity:1;paint-order:fill stroke markers"
       inkscape:connector-curvature="0"
       id="path63"
       stroke-miterlimit="10"
       d="m 217.5,977.5 h 3" />
    <path
       style="fill:none;stroke:#000000;stroke-miterlimit:10;stroke-opacity:1;paint-order:fill stroke markers"
       inkscape:connector-curvature="0"
       id="path65"
       stroke-miterlimit="10"
       d="m 217.5,904.5 h 3" />
    <path
       style="fill:none;stroke:#000000;stroke-miterlimit:10;stroke-opacity:1;paint-order:fill stroke markers"
       inkscape:connector-curvature="0"
       id="path67"
       stroke-miterlimit="10"
       d="m 217.5,757.5 h 3" />
    <path
       style="fill:none;stroke:#000000;stroke-miterlimit:10;stroke-opacity:1;paint-order:fill stroke markers"
       inkscape:connector-curvature="0"
       id="path69"
       stroke-miterlimit="10"
       d="m 217.5,684.5 h 3" />
    <path
       style="fill:none;stroke:#000000;stroke-miterlimit:10;stroke-opacity:1;paint-order:fill stroke markers"
       inkscape:connector-curvature="0"
       id="path71"
       stroke-miterlimit="10"
       d="m 217.5,611.5 h 3" />
    <path
       style="fill:none;stroke:#000000;stroke-miterlimit:10;stroke-opacity:1;paint-order:fill stroke markers"
       inkscape:connector-curvature="0"
       id="path73"
       stroke-miterlimit="10"
       d="m 217.5,538.5 h 3" />
    <path
       style="fill:none;stroke:#000000;stroke-miterlimit:10;stroke-opacity:1;paint-order:fill stroke markers"
       inkscape:connector-curvature="0"
       id="path75"
       stroke-miterlimit="10"
       d="m 217.5,464.5 h 3" />
    <path
       style="fill:none;stroke:#000000;stroke-miterlimit:10;stroke-opacity:1;paint-order:fill stroke markers"
       inkscape:connector-curvature="0"
       id="path77"
       stroke-miterlimit="10"
       d="m 217.5,391.5 h 3" />
    <path
       style="fill:none;stroke:#000000;stroke-miterlimit:10;stroke-opacity:1;paint-order:fill stroke markers"
       inkscape:connector-curvature="0"
       id="path79"
       stroke-miterlimit="10"
       d="m 217.5,318.5 h 3" />
    <path
       style="fill:none;stroke:#000000;stroke-miterlimit:10;stroke-opacity:1;paint-order:fill stroke markers"
       inkscape:connector-curvature="0"
       id="path81"
       stroke-miterlimit="10"
       d="m 217.5,245.5 h 3" />
    <path
       style="fill:none;stroke:#000000;stroke-miterlimit:10;stroke-opacity:1;paint-order:fill stroke markers"
       inkscape:connector-curvature="0"
       id="path83"
       stroke-miterlimit="10"
       d="m 217.5,172.5 h 3" />
    <path
       style="fill:none;stroke:#000000;stroke-miterlimit:10;stroke-opacity:1;paint-order:fill stroke markers"
       inkscape:connector-curvature="0"
       id="path85"
       stroke-miterlimit="10"
       d="m 217.5,98.5 h 3" />
    <path
       style="fill:none;stroke:#000000;stroke-miterlimit:10;stroke-opacity:1;paint-order:fill stroke markers"
       inkscape:connector-curvature="0"
       id="path87"
       stroke-miterlimit="10"
       d="m 217.5,25.5 h 3" />
    <path
       style="fill:none;stroke:#2e7d32;stroke-width:2.5;stroke-linecap:round;stroke-linejoin:round;stroke-miterlimit:10;stroke-opacity:0.8;paint-order:fill stroke markers"
       inkscape:connector-curvature="0"
       id="path89"
       stroke-miterlimit="10"
       d="m 234.79736,-5.2075131 v 0 l 0.18799,5.66936419 v 0 l 0.18799,5.63561251 0.18799,5.6020454 0.18799,5.568664 0.18798,5.535463 0.18799,5.502446 0.18799,5.469609 0.18799,5.436953 0.18799,5.404476 0.18799,5.372176 0.18798,5.340055 0.18799,5.30811 0.18799,5.27634 0.18799,5.244744 0.18799,5.213323 0.18799,5.182073 0.18798,5.150996 0.18799,5.120089 0.18799,5.089352 0.18799,5.058782 0.18799,5.02839 0.37597,9.96624 0.37598,9.84663 0.37598,9.72835 0.37597,9.61136 0.37598,9.49565 0.37598,9.38122 0.37597,9.26804 0.37598,9.15611 0.37598,9.04542 0.37597,8.93594 0.37598,8.82767 0.37598,8.72059 0.37597,8.61469 0.37598,8.50996 0.37598,8.40638 0.37597,8.30396 0.37598,8.20265 0.37598,8.10248 0.37597,8.00341 0.37598,7.90542 0.37597,7.80854 0.37598,7.71271 0.37598,7.61796 0.37597,7.52425 0.37598,7.43158 0.37598,7.33994 0.37597,7.24931 0.37598,7.1597 0.37598,7.07107 0.37597,6.98343 0.37598,6.89677 0.37598,6.81107 0.37597,6.72633 0.37598,6.64252 0.37598,6.55965 0.37597,6.47771 0.37598,6.39667 0.37598,6.31655 0.37597,6.23731 0.37598,6.15897 0.37598,6.0815 0.37597,6.00488 0.37598,5.92914 0.37598,5.85424 0.37597,5.78017 0.37598,5.70694 0.37598,5.63453 0.37597,5.56293 0.37598,5.49213 0.37598,5.42213 0.37597,5.35292 0.37598,5.28448 0.37597,5.21681 0.37598,5.1499 0.37598,5.08376 0.75195,9.97202 0.75195,9.71625 0.75196,9.46623 0.75195,9.22182 0.75195,8.98291 0.75196,8.74939 0.75195,8.52114 0.75195,8.29803 0.75196,8.07999 0.75195,7.86686 0.75195,7.65859 0.75196,7.45503 0.75195,7.25611 0.75195,7.0617 0.75195,6.87175 0.75196,6.68611 0.75195,6.50473 0.75195,6.3275 0.75196,6.15432 0.75195,5.98514 0.75195,5.81983 0.75196,5.65833 0.75195,5.50057 0.75195,5.34643 0.75196,5.19588 1.5039,9.95396 1.50391,9.39261 1.5039,8.85714 1.50391,8.34641 1.50391,7.85939 1.5039,7.39504 1.50391,6.95238 1.50391,6.53051 1.5039,6.12849 1.50391,5.74549 1.5039,5.38068 3.00782,9.73577 3.00781,8.4757 3.00781,7.33483 3.00781,6.30299 6.01563,9.9004 6.01562,6.86121 3.00782,2.47679 3.00781,1.92721 3.00781,1.43524 3.00781,0.99577 3.00782,0.60409 3.00781,0.25594 6.01562,-0.37799 6.01563,-1.341 6.01562,-2.07757 6.01563,-2.62837 6.01562,-3.0274 6.01563,-3.30305 6.01562,-3.47898 6.01563,-3.57488 6.01562,-3.60709 6.01563,-3.58912 6.01562,-3.53218 6.01563,-3.44545 6.01562,-3.33646 6.01563,-3.21141 6.01562,-3.07528 6.01563,-2.93211 6.01562,-2.78519 6.01563,-2.63705 6.01562,-2.48976 6.01563,-2.34488 6.01562,-2.20361 6.01563,-2.06688 6.01562,-1.93529 6.01563,-1.80932 6.01562,-1.68925 6.01563,-1.57521 6.01562,-1.46725 6.01563,-1.36534 6.01562,-1.26936 6.01563,-1.1792 6.01562,-1.09461 6.01563,-1.01544 6.01562,-0.94141 6.01563,-0.87231 6.01562,-0.80787 6.01563,-0.74785 6.01562,-0.69201 6.01563,-0.6401 6.01562,-0.59186 6.01563,-0.5471 6.01562,-0.50557 6.01563,-0.46708 6.01562,-0.4314 6.01563,-0.39837 6.01562,-0.36779 6.01563,-0.33949 6.01562,-0.31332 6.01563,-0.28912 6.01562,-0.26675 6.01563,-0.24608 6.01562,-0.22698 6.01563,-0.20934 6.01562,-0.19305 6.01563,-0.17802 6.01562,-0.16414 6.01563,-0.15133 6.01562,-0.1395 6.01563,-0.12861 6.01562,-0.11854 6.01563,-0.10926 6.01562,-0.1007 6.01563,-0.0928 6.01562,-0.0855 6.01563,-0.0788 6.01562,-0.0726 6.01563,-0.0669 6.01562,-0.0617 6.01563,-0.0568 6.01562,-0.0524 6.01563,-0.0482 6.01562,-0.0445 6.01563,-0.0409 6.01562,-0.0377 6.01563,-0.0348 6.01562,-0.032 6.01563,-0.0295 6.01562,-0.0272 6.01563,-0.025 6.01562,-0.0231 6.01563,-0.0213 6.01562,-0.0196 6.01563,-0.018 6.01562,-0.0166 6.01563,-0.0153 6.01562,-0.0141 6.01563,-0.013 6.01562,-0.012 6.01563,-0.011 6.01562,-0.0101 6.01563,-0.009 6.01562,-0.009 6.01563,-0.008 6.01562,-0.007 6.01563,-0.007 6.01562,-0.006 6.01563,-0.006 6.01562,-0.005 6.01563,-0.005 6.01562,-0.004 6.01563,-0.004 6.01562,-0.004 6.01563,-0.003 6.01562,-0.003 6.01563,-0.003 6.01562,-0.003 6.01563,-0.003 6.01562,-0.002 6.01563,-0.002 6.01562,-0.002 6.01563,-0.002 6.01565,-0.002 6.0156,-0.002 6.0156,-0.001 6.0156,-10e-4 6.0157,-10e-4 6.0156,-10e-4 6.0156,-0.001 6.0157,-9.4e-4 6.0156,-8.6e-4 6.0156,-7.9e-4 6.0156,-7.4e-4 6.0157,-6.7e-4 6.0156,-6.2e-4 6.0156,-5.8e-4 6.0156,-5.2e-4 6.0157,-4.9e-4 6.0156,-4.5e-4 6.0156,-4.1e-4 6.0156,-3.8e-4 6.0157,-3.5e-4 6.0156,-3.2e-4 6.0156,-3e-4 6.0156,-2.7e-4 6.0157,-2.5e-4 6.0156,-2.3e-4 6.0156,-2.2e-4 6.0156,-1.9e-4 6.0157,-1.8e-4 6.0156,-1.7e-4 6.0156,-1.6e-4 6.0156,-1.4e-4 6.0157,-1.3e-4 6.0156,-1.2e-4 6.0156,-1.1e-4 6.0156,-10e-5 6.0157,-9e-5 6.0156,-9e-5 6.0156,-8e-5 6.0156,-7e-5 6.0156,-7e-5 6.0157,-6e-5 6.0156,-6e-5 6.0156,-5e-5 6.0157,-5e-5 6.0156,-5e-5 6.0156,-4e-5 6.0156,-4e-5 6.0157,-3e-5 6.0156,-3e-5 6.0156,-3e-5 6.0156,-3e-5 6.0156,-3e-5 6.0157,-2e-5 6.0156,-2e-5 6.0156,-2e-5 6.0156,-2e-5 6.0157,-10e-6 6.0156,-2e-5 6.0156,-1e-5 6.0157,-2e-5 6.0156,-10e-6 6.0156,-10e-6 6.0156,-1e-5 6.0157,-10e-6 6.0156,-10e-6 6.0156,-10e-6 h 6.0156 l 6.0157,-1e-5 6.0156,-10e-6 h 6.0156 l 6.0156,-10e-6 h 6.0156 l 6.0157,-10e-6 h 6.0156 l 6.0156,-10e-6 h 6.0156 6.0157 l 6.0156,-1e-5 h 6.0156 6.0157 6.0156 6.0156 l 6.0156,-10e-6 h 6.0156 6.0157 6.0156 6.0156 6.0156 l 6.0157,-10e-6 v 0 H 1540 v 0" />
    <path
       style="fill:none;stroke:#1565c0;stroke-width:2.5;stroke-linecap:round;stroke-linejoin:round;stroke-miterlimit:10;stroke-opacity:0.8;paint-order:fill stroke markers"
       inkscape:connector-curvature="0"
       id="path91"
       stroke-miterlimit="10"
       d="m 111.28906,-10.285456 0.75196,5.57537 0.75195,5.55683281 0.75195,5.53829529 0.75196,5.5197579 0.75195,5.50122 0.75195,5.482683 0.75195,5.464145 0.75196,5.445607 0.75195,5.42707 0.75195,5.408533 0.75196,5.389995 0.75195,5.371457 0.75195,5.35292 0.75196,5.334383 0.75195,5.315845 0.75195,5.297307 0.75196,5.27877 0.75195,5.260232 0.75195,5.241694 0.75195,5.223158 0.75196,5.204621 0.75195,5.18608 0.75195,5.16754 0.75196,5.14901 0.75195,5.13047 0.75195,5.11193 0.75196,5.0934 0.75195,5.07485 0.75195,5.05632 0.75196,5.03779 0.75195,5.01924 0.75195,5.00071 1.50391,9.9458 1.5039,9.87165 1.50391,9.7975 1.50391,9.72335 1.5039,9.6492 1.50391,9.57505 1.50391,9.5009 1.5039,9.42675 1.50391,9.3526 1.5039,9.27845 1.50391,9.2043 1.50391,9.13015 1.5039,9.056 1.50391,8.98184 1.50391,8.9077 1.5039,8.83355 1.50391,8.7594 1.5039,8.68525 1.50391,8.6111 1.50391,8.53694 1.5039,8.4628 1.50391,8.38865 1.50391,8.3145 1.5039,8.24034 1.50391,8.1662 1.5039,8.09205 1.50391,8.0179 1.50391,7.94374 1.5039,7.8696 1.50391,7.79545 1.50391,7.72129 1.5039,7.64715 1.50391,7.57299 1.5039,7.49885 1.50391,7.4247 1.50391,7.35054 1.5039,7.2764 1.50391,7.20224 1.50391,7.1281 1.5039,7.05394 1.50391,6.9798 1.5039,6.90564 1.50391,6.8315 1.50391,6.75734 1.5039,6.68319 1.50391,6.60905 1.50391,6.53489 1.5039,6.46075 1.50391,6.38659 1.5039,6.31244 1.50391,6.2383 1.50391,6.16414 1.5039,6.08999 1.50391,6.01585 1.50391,5.94169 1.5039,5.86754 1.50391,5.79339 1.5039,5.71925 1.50391,5.64509 1.50391,5.57094 1.5039,5.49679 1.50391,5.42264 1.50391,5.3485 1.5039,5.27434 1.50391,5.20019 1.5039,5.12604 1.50391,5.05189 1.50391,4.97774 3.00781,9.73303 3.00781,9.43643 3.00781,9.13983 3.00782,8.84323 3.00781,8.54663 3.00781,8.25003 3.00781,7.95343 3.00782,7.65683 3.00781,7.36022 3.00781,7.06363 3.00781,6.76702 3.00782,6.47043 3.00781,6.17382 3.00781,5.87722 3.00781,5.58063 3.00782,5.28402 3.00781,4.98742 6.01562,9.08504 6.01563,7.89864 6.01562,6.71224 6.01563,5.52583 6.01562,4.33944 6.01563,3.15303 6.01562,1.96662 3.00782,0.53842 3.00781,0.24181 6.01562,-0.40618 3.00782,-0.64799 3.00781,-0.94459 6.01562,-2.77898 6.01563,-3.96538 6.01562,-5.15179 6.01563,-6.33819 6.01562,-7.52459 6.01563,-8.711 6.01562,-9.89739 3.00782,-5.3936 3.00781,-5.6902 3.00781,-5.9868 3.00781,-6.2834 3.00782,-6.58 3.00781,-6.87661 3.00781,-7.1732 3.00781,-7.4698 3.00782,-7.76641 3.00781,-8.063 3.00781,-8.35961 3.00781,-8.6562 3.00782,-8.95281 3.00781,-9.2494 3.00781,-9.54601 3.00781,-9.84261 1.50391,-5.03253 1.50391,-5.10668 1.5039,-5.18083 1.50391,-5.25498 1.50391,-5.32913 1.5039,-5.40328 1.50391,-5.47743 1.5039,-5.55158 1.50391,-5.62573 1.50391,-5.69988 1.5039,-5.77403 1.50391,-5.84818 1.50391,-5.92233 1.5039,-5.99648 1.50391,-6.07063 1.5039,-6.14478 1.50391,-6.21894 1.50391,-6.29308 1.5039,-6.36723 1.50391,-6.44138 1.50391,-6.51553 1.5039,-6.58969 1.50391,-6.66383 1.5039,-6.73798 1.50391,-6.81213 1.50391,-6.88629 1.5039,-6.96043 1.50391,-7.03458 1.50391,-7.10874 1.5039,-7.18288 1.50391,-7.25703 1.5039,-7.33119 1.50391,-7.40533 1.50391,-7.47949 1.5039,-7.55363 1.50391,-7.62778 1.50391,-7.70194 1.5039,-7.77608 1.50391,-7.85024 1.5039,-7.92438 1.50391,-7.99854 1.50391,-8.07268 1.5039,-8.14684 1.50391,-8.22098 1.50391,-8.29514 1.5039,-8.36929 1.50391,-8.44343 1.5039,-8.51759 1.50391,-8.59173 1.50391,-8.66589 1.5039,-8.74004 1.50391,-8.81418 1.50391,-8.88834 1.5039,-8.96249 1.50391,-9.03664 1.5039,-9.11078 1.50391,-9.18494 1.50391,-9.25909 1.5039,-9.33324 1.50391,-9.40738 1.50391,-9.48154 1.5039,-9.55569 1.50391,-9.62984 1.5039,-9.70399 1.50391,-9.77814 1.50391,-9.85229 1.5039,-9.92643 0.75196,-4.99103 0.75195,-5.00956 0.75195,-5.0281 0.75196,-5.04664 0.75195,-5.06518 0.75195,-5.08371 0.75196,-5.10225 0.75195,-5.12079 0.75195,-5.13933 0.75195,-5.15786 0.75196,-5.1764 0.75195,-5.19494 0.75195,-5.213478 0.75196,-5.232014 0.75195,-5.250551 0.75195,-5.269089 0.75196,-5.287626 0.75195,-5.306164 0.75195,-5.324702 0.75196,-5.343239 0.75195,-5.361776 0.75195,-5.380314 0.75196,-5.398852 0.75195,-5.417389 0.75195,-5.435927 0.75195,-5.454464 0.75196,-5.473002 0.75195,-5.491539 0.75195,-5.5100769 0.75196,-5.5286144 0.75195,-5.5471519 0.75195,-5.5656895" />
  </g>
  <path
     style="fill:none;stroke:#000000;stroke-width:0.97397411px;stroke-linecap:butt;stroke-linejoin:miter;stroke-opacity:1;marker-start:url(#Arrow2Lstart);marker-end:url(#Arrow2Lend)"
     d="m 554.59156,248.76469 v 81.46453"
     id="path914"
     inkscape:connector-curvature="0" />
  <text
     xml:space="preserve"
     style="font-style:normal;font-weight:normal;font-size:23.08390999px;line-height:1.25;font-family:sans-serif;letter-spacing:0px;word-spacing:0px;fill:#000000;fill-opacity:1;stroke:none;stroke-width:0.57709777"
     x="562.52582"
     y="293.16348"
     id="text1570"><tspan
       sodipodi:role="line"
       id="tspan1568"
       x="562.52582"
       y="293.16348"
       style="stroke-width:0.57709777">E<tspan
   style="font-size:15.0045414px;baseline-shift:sub;stroke-width:0.57709777"
   id="tspan1572">D</tspan></tspan></text>
  <text
     xml:space="preserve"
     style="font-style:normal;font-weight:normal;font-size:15.38534832px;line-height:1.25;font-family:sans-serif;letter-spacing:0px;word-spacing:0px;fill:#000000;fill-opacity:1;stroke:none;stroke-width:0.38463372"
     x="288.06534"
     y="172.6835"
     id="text1570-3"><tspan
       sodipodi:role="line"
       id="tspan1568-6"
       x="288.06534"
       y="172.6835"
       style="stroke-width:0.38463372">harmonische Näherung</tspan></text>
  <path
     style="fill:none;stroke:#000000;stroke-width:2.0999999;stroke-linecap:butt;stroke-linejoin:miter;stroke-miterlimit:4;stroke-dasharray:none;stroke-opacity:1"
     d="m 177.80253,325.76923 v 13.72453"
     id="path1639"
     inkscape:connector-curvature="0" />
  <text
     xml:space="preserve"
     style="font-style:normal;font-weight:normal;font-size:18.27741623px;line-height:1.25;font-family:sans-serif;letter-spacing:0px;word-spacing:0px;fill:#000000;fill-opacity:1;stroke:none;stroke-width:0.45693544"
     x="168.86781"
     y="354.85867"
     id="text1570-5"><tspan
       sodipodi:role="line"
       id="tspan1568-3"
       x="168.86781"
       y="354.85867"
       style="stroke-width:0.45693544">R<tspan
   style="font-size:11.88032055px;baseline-shift:sub;stroke-width:0.45693544"
   id="tspan1662">0</tspan></tspan></text>
  <path
     style="fill:none;stroke:#000000;stroke-width:1px;stroke-linecap:butt;stroke-linejoin:miter;stroke-opacity:1"
     d="M 126.97416,289.61412 H 229.12394"
     id="path1664"
     inkscape:connector-curvature="0" />
  <path
     style="fill:none;stroke:#000000;stroke-width:1px;stroke-linecap:butt;stroke-linejoin:miter;stroke-opacity:1"
     d="m 250.29894,245.91133 h -72.9005 -71.40321"
     id="path1683"
     inkscape:connector-curvature="0" />
  <path
     style="fill:none;stroke:#000000;stroke-width:1px;stroke-linecap:butt;stroke-linejoin:miter;stroke-opacity:1"
     d="M 177.39844,202.4046 H 89.525777"
     id="path1691"
     inkscape:connector-curvature="0" />
  <path
     style="fill:none;stroke:#000000;stroke-width:1px;stroke-linecap:butt;stroke-linejoin:miter;stroke-opacity:1"
     d="m 177.39844,202.4046 h 89.36995"
     id="path1737"
     inkscape:connector-curvature="0" />
  <text
     xml:space="preserve"
     style="font-style:normal;font-weight:normal;font-size:13.36298752px;line-height:1.25;font-family:sans-serif;letter-spacing:0px;word-spacing:0px;fill:#000000;fill-opacity:1;stroke:none;stroke-width:0.33407468"
     x="234.97287"
     y="294.04379"
     id="text1741"><tspan
       sodipodi:role="line"
       id="tspan1739"
       x="234.97287"
       y="294.04379"
       style="stroke-width:0.33407468">E<tspan
   style="font-size:8.6859417px;baseline-shift:sub;stroke-width:0.33407468"
   id="tspan1743">1</tspan></tspan></text>
  <text
     xml:space="preserve"
     style="font-style:normal;font-weight:normal;font-size:13.36298752px;line-height:1.25;font-family:sans-serif;letter-spacing:0px;word-spacing:0px;fill:#000000;fill-opacity:1;stroke:none;stroke-width:0.33407468"
     x="255.19696"
     y="250.72745"
     id="text1741-9"><tspan
       sodipodi:role="line"
       id="tspan1739-1"
       x="255.19696"
       y="250.72745"
       style="stroke-width:0.33407468">E<tspan
   style="font-size:64.99999762%;baseline-shift:sub"
   id="tspan1776">2</tspan></tspan></text>
  <text
     xml:space="preserve"
     style="font-style:normal;font-weight:normal;font-size:13.36298752px;line-height:1.25;font-family:sans-serif;letter-spacing:0px;word-spacing:0px;fill:#000000;fill-opacity:1;stroke:none;stroke-width:0.33407468"
     x="272.24954"
     y="207.19489"
     id="text1741-7"><tspan
       sodipodi:role="line"
       id="tspan1739-0"
       x="272.24954"
       y="207.19489"
       style="stroke-width:0.33407468">E<tspan
   style="font-size:64.99999762%;baseline-shift:sub"
   id="tspan1778">3</tspan></tspan></text>
</svg>
